ISO-10303-21;
HEADER;
/* Generated by software containing ST-Developer
 * from STEP Tools, Inc. (www.steptools.com) 
 */
/* OPTION: using custom renumber hook */

FILE_DESCRIPTION(
/* description */ ('STEP AP242 Edition 2',
'CAx-IF Rec.Pracs.---Representation and Presentation of Product Manufa
cturing Information (PMI)---4.0---2014-10-13',
'CAx-IF Rec.Pracs.---3D Tessellated Geometry---0.4---2014-09-14','2;1',
'CAx-IF Rec.Pracs.---User Defined Attributes---1.5---2016-08-15'),
/* implementation_level */ '2;1');

FILE_NAME(
/* name */ '697990acd065cfcb46306ae1',
/* time_stamp */ '2026-01-28T04:29:32Z',
/* author */ (''),
/* organization */ (''),
/* preprocessor_version */ 'ST-DEVELOPER v20',
/* originating_system */ 'ONSHAPE BY PTC INC, 1.209',
/* authorisation */ '  ');

FILE_SCHEMA (('AP242_MANAGED_MODEL_BASED_3D_ENGINEERING_MIM_LF { 1 0 10303 442 3 1 4 }'));
ENDSEC;

DATA;
#10=ORIENTED_CLOSED_SHELL('',*,#523,.F.);
#11=BREP_WITH_VOIDS('AirOutside',#522,(#10));
#12=SHAPE_REPRESENTATION_RELATIONSHIP('','',#553,#15);
#13=SHAPE_REPRESENTATION_RELATIONSHIP('','',#554,#16);
#14=SHAPE_REPRESENTATION_RELATIONSHIP('','',#555,#17);
#15=ADVANCED_BREP_SHAPE_REPRESENTATION('',(#548),#883);
#16=ADVANCED_BREP_SHAPE_REPRESENTATION('',(#549),#884);
#17=ADVANCED_BREP_SHAPE_REPRESENTATION('',(#11),#885);
#18=CIRCLE('',#559,0.004);
#19=CIRCLE('',#560,0.004);
#20=CIRCLE('',#587,0.004);
#21=CIRCLE('',#588,0.004);
#22=CYLINDRICAL_SURFACE('',#558,0.004);
#23=CYLINDRICAL_SURFACE('',#586,0.004);
#24=ORIENTED_EDGE('',*,*,#152,.F.);
#25=ORIENTED_EDGE('',*,*,#153,.T.);
#26=ORIENTED_EDGE('',*,*,#154,.T.);
#27=ORIENTED_EDGE('',*,*,#155,.T.);
#28=ORIENTED_EDGE('',*,*,#156,.T.);
#29=ORIENTED_EDGE('',*,*,#157,.T.);
#30=ORIENTED_EDGE('',*,*,#158,.F.);
#31=ORIENTED_EDGE('',*,*,#159,.T.);
#32=ORIENTED_EDGE('',*,*,#160,.T.);
#33=ORIENTED_EDGE('',*,*,#161,.F.);
#34=ORIENTED_EDGE('',*,*,#155,.F.);
#35=ORIENTED_EDGE('',*,*,#162,.F.);
#36=ORIENTED_EDGE('',*,*,#161,.T.);
#37=ORIENTED_EDGE('',*,*,#163,.T.);
#38=ORIENTED_EDGE('',*,*,#164,.T.);
#39=ORIENTED_EDGE('',*,*,#152,.T.);
#40=ORIENTED_EDGE('',*,*,#163,.F.);
#41=ORIENTED_EDGE('',*,*,#160,.F.);
#42=ORIENTED_EDGE('',*,*,#157,.F.);
#43=ORIENTED_EDGE('',*,*,#154,.F.);
#44=ORIENTED_EDGE('',*,*,#165,.F.);
#45=ORIENTED_EDGE('',*,*,#158,.T.);
#46=ORIENTED_EDGE('',*,*,#162,.T.);
#47=ORIENTED_EDGE('',*,*,#166,.T.);
#48=ORIENTED_EDGE('',*,*,#167,.T.);
#49=ORIENTED_EDGE('',*,*,#168,.F.);
#50=ORIENTED_EDGE('',*,*,#169,.F.);
#51=ORIENTED_EDGE('',*,*,#167,.F.);
#52=ORIENTED_EDGE('',*,*,#170,.F.);
#53=ORIENTED_EDGE('',*,*,#171,.T.);
#54=ORIENTED_EDGE('',*,*,#172,.T.);
#55=ORIENTED_EDGE('',*,*,#168,.T.);
#56=ORIENTED_EDGE('',*,*,#172,.F.);
#57=ORIENTED_EDGE('',*,*,#173,.F.);
#58=ORIENTED_EDGE('',*,*,#174,.T.);
#59=ORIENTED_EDGE('',*,*,#174,.F.);
#60=ORIENTED_EDGE('',*,*,#175,.F.);
#61=ORIENTED_EDGE('',*,*,#176,.T.);
#62=ORIENTED_EDGE('',*,*,#169,.T.);
#63=ORIENTED_EDGE('',*,*,#166,.F.);
#64=ORIENTED_EDGE('',*,*,#176,.F.);
#65=ORIENTED_EDGE('',*,*,#177,.T.);
#66=ORIENTED_EDGE('',*,*,#170,.T.);
#67=ORIENTED_EDGE('',*,*,#156,.F.);
#68=ORIENTED_EDGE('',*,*,#175,.T.);
#69=ORIENTED_EDGE('',*,*,#173,.T.);
#70=ORIENTED_EDGE('',*,*,#171,.F.);
#71=ORIENTED_EDGE('',*,*,#177,.F.);
#72=ORIENTED_EDGE('',*,*,#153,.F.);
#73=ORIENTED_EDGE('',*,*,#164,.F.);
#74=ORIENTED_EDGE('',*,*,#159,.F.);
#75=ORIENTED_EDGE('',*,*,#165,.T.);
#76=ORIENTED_EDGE('',*,*,#178,.F.);
#77=ORIENTED_EDGE('',*,*,#179,.F.);
#78=ORIENTED_EDGE('',*,*,#180,.T.);
#79=ORIENTED_EDGE('',*,*,#181,.T.);
#80=ORIENTED_EDGE('',*,*,#182,.F.);
#81=ORIENTED_EDGE('',*,*,#183,.F.);
#82=ORIENTED_EDGE('',*,*,#184,.T.);
#83=ORIENTED_EDGE('',*,*,#179,.T.);
#84=ORIENTED_EDGE('',*,*,#185,.T.);
#85=ORIENTED_EDGE('',*,*,#186,.F.);
#86=ORIENTED_EDGE('',*,*,#187,.F.);
#87=ORIENTED_EDGE('',*,*,#183,.T.);
#88=ORIENTED_EDGE('',*,*,#188,.T.);
#89=ORIENTED_EDGE('',*,*,#181,.F.);
#90=ORIENTED_EDGE('',*,*,#189,.F.);
#91=ORIENTED_EDGE('',*,*,#186,.T.);
#92=ORIENTED_EDGE('',*,*,#180,.F.);
#93=ORIENTED_EDGE('',*,*,#184,.F.);
#94=ORIENTED_EDGE('',*,*,#187,.T.);
#95=ORIENTED_EDGE('',*,*,#189,.T.);
#96=ORIENTED_EDGE('',*,*,#178,.T.);
#97=ORIENTED_EDGE('',*,*,#188,.F.);
#98=ORIENTED_EDGE('',*,*,#185,.F.);
#99=ORIENTED_EDGE('',*,*,#182,.T.);
#100=ORIENTED_EDGE('',*,*,#190,.F.);
#101=ORIENTED_EDGE('',*,*,#191,.F.);
#102=ORIENTED_EDGE('',*,*,#192,.T.);
#103=ORIENTED_EDGE('',*,*,#193,.T.);
#104=ORIENTED_EDGE('',*,*,#194,.T.);
#105=ORIENTED_EDGE('',*,*,#195,.F.);
#106=ORIENTED_EDGE('',*,*,#196,.F.);
#107=ORIENTED_EDGE('',*,*,#191,.T.);
#108=ORIENTED_EDGE('',*,*,#197,.T.);
#109=ORIENTED_EDGE('',*,*,#198,.F.);
#110=ORIENTED_EDGE('',*,*,#199,.F.);
#111=ORIENTED_EDGE('',*,*,#195,.T.);
#112=ORIENTED_EDGE('',*,*,#200,.F.);
#113=ORIENTED_EDGE('',*,*,#193,.F.);
#114=ORIENTED_EDGE('',*,*,#201,.T.);
#115=ORIENTED_EDGE('',*,*,#198,.T.);
#116=ORIENTED_EDGE('',*,*,#192,.F.);
#117=ORIENTED_EDGE('',*,*,#196,.T.);
#118=ORIENTED_EDGE('',*,*,#199,.T.);
#119=ORIENTED_EDGE('',*,*,#201,.F.);
#120=ORIENTED_EDGE('',*,*,#190,.T.);
#121=ORIENTED_EDGE('',*,*,#200,.T.);
#122=ORIENTED_EDGE('',*,*,#197,.F.);
#123=ORIENTED_EDGE('',*,*,#194,.F.);
#124=ORIENTED_EDGE('',*,*,#202,.F.);
#125=ORIENTED_EDGE('',*,*,#203,.T.);
#126=ORIENTED_EDGE('',*,*,#204,.F.);
#127=ORIENTED_EDGE('',*,*,#205,.T.);
#128=ORIENTED_EDGE('',*,*,#206,.T.);
#129=ORIENTED_EDGE('',*,*,#207,.F.);
#130=ORIENTED_EDGE('',*,*,#207,.T.);
#131=ORIENTED_EDGE('',*,*,#208,.F.);
#132=ORIENTED_EDGE('',*,*,#209,.F.);
#133=ORIENTED_EDGE('',*,*,#210,.T.);
#134=ORIENTED_EDGE('',*,*,#206,.F.);
#135=ORIENTED_EDGE('',*,*,#211,.F.);
#136=ORIENTED_EDGE('',*,*,#212,.T.);
#137=ORIENTED_EDGE('',*,*,#208,.T.);
#138=ORIENTED_EDGE('',*,*,#211,.T.);
#139=ORIENTED_EDGE('',*,*,#205,.F.);
#140=ORIENTED_EDGE('',*,*,#213,.F.);
#141=ORIENTED_EDGE('',*,*,#214,.T.);
#142=ORIENTED_EDGE('',*,*,#204,.T.);
#143=ORIENTED_EDGE('',*,*,#210,.F.);
#144=ORIENTED_EDGE('',*,*,#215,.F.);
#145=ORIENTED_EDGE('',*,*,#213,.T.);
#146=ORIENTED_EDGE('',*,*,#202,.T.);
#147=ORIENTED_EDGE('',*,*,#214,.F.);
#148=ORIENTED_EDGE('',*,*,#215,.T.);
#149=ORIENTED_EDGE('',*,*,#209,.T.);
#150=ORIENTED_EDGE('',*,*,#212,.F.);
#151=ORIENTED_EDGE('',*,*,#203,.F.);
#152=EDGE_CURVE('',#216,#217,#260,.T.);
#153=EDGE_CURVE('',#216,#218,#261,.T.);
#154=EDGE_CURVE('',#218,#219,#262,.T.);
#155=EDGE_CURVE('',#219,#217,#263,.T.);
#156=EDGE_CURVE('',#220,#220,#18,.T.);
#157=EDGE_CURVE('',#221,#221,#19,.T.);
#158=EDGE_CURVE('',#222,#223,#264,.T.);
#159=EDGE_CURVE('',#222,#224,#265,.T.);
#160=EDGE_CURVE('',#224,#225,#266,.T.);
#161=EDGE_CURVE('',#223,#225,#267,.T.);
#162=EDGE_CURVE('',#223,#219,#268,.T.);
#163=EDGE_CURVE('',#225,#217,#269,.T.);
#164=EDGE_CURVE('',#224,#216,#270,.T.);
#165=EDGE_CURVE('',#222,#218,#271,.T.);
#166=EDGE_CURVE('',#226,#227,#272,.T.);
#167=EDGE_CURVE('',#227,#228,#273,.T.);
#168=EDGE_CURVE('',#229,#228,#274,.T.);
#169=EDGE_CURVE('',#226,#229,#275,.T.);
#170=EDGE_CURVE('',#230,#227,#276,.T.);
#171=EDGE_CURVE('',#230,#231,#277,.T.);
#172=EDGE_CURVE('',#231,#228,#278,.T.);
#173=EDGE_CURVE('',#232,#231,#279,.T.);
#174=EDGE_CURVE('',#232,#229,#280,.T.);
#175=EDGE_CURVE('',#233,#232,#281,.T.);
#176=EDGE_CURVE('',#233,#226,#282,.T.);
#177=EDGE_CURVE('',#233,#230,#283,.T.);
#178=EDGE_CURVE('',#234,#235,#284,.T.);
#179=EDGE_CURVE('',#236,#234,#285,.T.);
#180=EDGE_CURVE('',#236,#237,#286,.T.);
#181=EDGE_CURVE('',#237,#235,#287,.T.);
#182=EDGE_CURVE('',#238,#234,#288,.T.);
#183=EDGE_CURVE('',#239,#238,#289,.T.);
#184=EDGE_CURVE('',#239,#236,#290,.T.);
#185=EDGE_CURVE('',#238,#240,#291,.T.);
#186=EDGE_CURVE('',#241,#240,#292,.T.);
#187=EDGE_CURVE('',#239,#241,#293,.T.);
#188=EDGE_CURVE('',#240,#235,#294,.T.);
#189=EDGE_CURVE('',#241,#237,#295,.T.);
#190=EDGE_CURVE('',#242,#243,#296,.T.);
#191=EDGE_CURVE('',#244,#242,#297,.T.);
#192=EDGE_CURVE('',#244,#245,#298,.T.);
#193=EDGE_CURVE('',#245,#243,#299,.T.);
#194=EDGE_CURVE('',#242,#246,#300,.T.);
#195=EDGE_CURVE('',#247,#246,#301,.T.);
#196=EDGE_CURVE('',#244,#247,#302,.T.);
#197=EDGE_CURVE('',#246,#248,#303,.T.);
#198=EDGE_CURVE('',#249,#248,#304,.T.);
#199=EDGE_CURVE('',#247,#249,#305,.T.);
#200=EDGE_CURVE('',#243,#248,#306,.T.);
#201=EDGE_CURVE('',#245,#249,#307,.T.);
#202=EDGE_CURVE('',#250,#250,#20,.T.);
#203=EDGE_CURVE('',#251,#251,#21,.F.);
#204=EDGE_CURVE('',#252,#253,#308,.T.);
#205=EDGE_CURVE('',#252,#254,#309,.T.);
#206=EDGE_CURVE('',#254,#255,#310,.T.);
#207=EDGE_CURVE('',#253,#255,#311,.T.);
#208=EDGE_CURVE('',#256,#255,#312,.T.);
#209=EDGE_CURVE('',#257,#256,#313,.T.);
#210=EDGE_CURVE('',#257,#253,#314,.T.);
#211=EDGE_CURVE('',#258,#254,#315,.T.);
#212=EDGE_CURVE('',#258,#256,#316,.T.);
#213=EDGE_CURVE('',#259,#252,#317,.T.);
#214=EDGE_CURVE('',#259,#258,#318,.T.);
#215=EDGE_CURVE('',#259,#257,#319,.T.);
#216=VERTEX_POINT('',#739);
#217=VERTEX_POINT('',#740);
#218=VERTEX_POINT('',#742);
#219=VERTEX_POINT('',#744);
#220=VERTEX_POINT('',#748);
#221=VERTEX_POINT('',#750);
#222=VERTEX_POINT('',#753);
#223=VERTEX_POINT('',#754);
#224=VERTEX_POINT('',#756);
#225=VERTEX_POINT('',#758);
#226=VERTEX_POINT('',#769);
#227=VERTEX_POINT('',#770);
#228=VERTEX_POINT('',#772);
#229=VERTEX_POINT('',#774);
#230=VERTEX_POINT('',#778);
#231=VERTEX_POINT('',#780);
#232=VERTEX_POINT('',#784);
#233=VERTEX_POINT('',#788);
#234=VERTEX_POINT('',#797);
#235=VERTEX_POINT('',#798);
#236=VERTEX_POINT('',#800);
#237=VERTEX_POINT('',#802);
#238=VERTEX_POINT('',#806);
#239=VERTEX_POINT('',#808);
#240=VERTEX_POINT('',#812);
#241=VERTEX_POINT('',#814);
#242=VERTEX_POINT('',#824);
#243=VERTEX_POINT('',#825);
#244=VERTEX_POINT('',#827);
#245=VERTEX_POINT('',#829);
#246=VERTEX_POINT('',#833);
#247=VERTEX_POINT('',#835);
#248=VERTEX_POINT('',#839);
#249=VERTEX_POINT('',#841);
#250=VERTEX_POINT('',#850);
#251=VERTEX_POINT('',#852);
#252=VERTEX_POINT('',#855);
#253=VERTEX_POINT('',#856);
#254=VERTEX_POINT('',#858);
#255=VERTEX_POINT('',#860);
#256=VERTEX_POINT('',#864);
#257=VERTEX_POINT('',#866);
#258=VERTEX_POINT('',#870);
#259=VERTEX_POINT('',#874);
#260=LINE('',#738,#320);
#261=LINE('',#741,#321);
#262=LINE('',#743,#322);
#263=LINE('',#745,#323);
#264=LINE('',#752,#324);
#265=LINE('',#755,#325);
#266=LINE('',#757,#326);
#267=LINE('',#759,#327);
#268=LINE('',#761,#328);
#269=LINE('',#762,#329);
#270=LINE('',#764,#330);
#271=LINE('',#766,#331);
#272=LINE('',#768,#332);
#273=LINE('',#771,#333);
#274=LINE('',#773,#334);
#275=LINE('',#775,#335);
#276=LINE('',#777,#336);
#277=LINE('',#779,#337);
#278=LINE('',#781,#338);
#279=LINE('',#783,#339);
#280=LINE('',#785,#340);
#281=LINE('',#787,#341);
#282=LINE('',#789,#342);
#283=LINE('',#791,#343);
#284=LINE('',#796,#344);
#285=LINE('',#799,#345);
#286=LINE('',#801,#346);
#287=LINE('',#803,#347);
#288=LINE('',#805,#348);
#289=LINE('',#807,#349);
#290=LINE('',#809,#350);
#291=LINE('',#811,#351);
#292=LINE('',#813,#352);
#293=LINE('',#815,#353);
#294=LINE('',#817,#354);
#295=LINE('',#818,#355);
#296=LINE('',#823,#356);
#297=LINE('',#826,#357);
#298=LINE('',#828,#358);
#299=LINE('',#830,#359);
#300=LINE('',#832,#360);
#301=LINE('',#834,#361);
#302=LINE('',#836,#362);
#303=LINE('',#838,#363);
#304=LINE('',#840,#364);
#305=LINE('',#842,#365);
#306=LINE('',#844,#366);
#307=LINE('',#845,#367);
#308=LINE('',#854,#368);
#309=LINE('',#857,#369);
#310=LINE('',#859,#370);
#311=LINE('',#861,#371);
#312=LINE('',#863,#372);
#313=LINE('',#865,#373);
#314=LINE('',#867,#374);
#315=LINE('',#869,#375);
#316=LINE('',#871,#376);
#317=LINE('',#873,#377);
#318=LINE('',#875,#378);
#319=LINE('',#877,#379);
#320=VECTOR('',#600,1.);
#321=VECTOR('',#601,1.);
#322=VECTOR('',#602,1.);
#323=VECTOR('',#603,1.);
#324=VECTOR('',#612,1.);
#325=VECTOR('',#613,1.);
#326=VECTOR('',#614,1.);
#327=VECTOR('',#615,1.);
#328=VECTOR('',#618,1.);
#329=VECTOR('',#619,1.);
#330=VECTOR('',#622,1.);
#331=VECTOR('',#625,1.);
#332=VECTOR('',#628,1.);
#333=VECTOR('',#629,1.);
#334=VECTOR('',#630,1.);
#335=VECTOR('',#631,1.);
#336=VECTOR('',#634,1.);
#337=VECTOR('',#635,1.);
#338=VECTOR('',#636,1.);
#339=VECTOR('',#639,1.);
#340=VECTOR('',#640,1.);
#341=VECTOR('',#643,1.);
#342=VECTOR('',#644,1.);
#343=VECTOR('',#647,1.);
#344=VECTOR('',#656,1.);
#345=VECTOR('',#657,1.);
#346=VECTOR('',#658,1.);
#347=VECTOR('',#659,1.);
#348=VECTOR('',#662,1.);
#349=VECTOR('',#663,1.);
#350=VECTOR('',#664,1.);
#351=VECTOR('',#667,1.);
#352=VECTOR('',#668,1.);
#353=VECTOR('',#669,1.);
#354=VECTOR('',#672,1.);
#355=VECTOR('',#673,1.);
#356=VECTOR('',#682,1.);
#357=VECTOR('',#683,1.);
#358=VECTOR('',#684,1.);
#359=VECTOR('',#685,1.);
#360=VECTOR('',#688,1.);
#361=VECTOR('',#689,1.);
#362=VECTOR('',#690,1.);
#363=VECTOR('',#693,1.);
#364=VECTOR('',#694,1.);
#365=VECTOR('',#695,1.);
#366=VECTOR('',#698,1.);
#367=VECTOR('',#699,1.);
#368=VECTOR('',#712,1.);
#369=VECTOR('',#713,1.);
#370=VECTOR('',#714,1.);
#371=VECTOR('',#715,1.);
#372=VECTOR('',#718,1.);
#373=VECTOR('',#719,1.);
#374=VECTOR('',#720,1.);
#375=VECTOR('',#723,1.);
#376=VECTOR('',#724,1.);
#377=VECTOR('',#727,1.);
#378=VECTOR('',#728,1.);
#379=VECTOR('',#731,1.);
#380=EDGE_LOOP('',(#24,#25,#26,#27));
#381=EDGE_LOOP('',(#28));
#382=EDGE_LOOP('',(#29));
#383=EDGE_LOOP('',(#30,#31,#32,#33));
#384=EDGE_LOOP('',(#34,#35,#36,#37));
#385=EDGE_LOOP('',(#38,#39,#40,#41));
#386=EDGE_LOOP('',(#42));
#387=EDGE_LOOP('',(#43,#44,#45,#46));
#388=EDGE_LOOP('',(#47,#48,#49,#50));
#389=EDGE_LOOP('',(#51,#52,#53,#54));
#390=EDGE_LOOP('',(#55,#56,#57,#58));
#391=EDGE_LOOP('',(#59,#60,#61,#62));
#392=EDGE_LOOP('',(#63,#64,#65,#66));
#393=EDGE_LOOP('',(#67));
#394=EDGE_LOOP('',(#68,#69,#70,#71));
#395=EDGE_LOOP('',(#72,#73,#74,#75));
#396=EDGE_LOOP('',(#76,#77,#78,#79));
#397=EDGE_LOOP('',(#80,#81,#82,#83));
#398=EDGE_LOOP('',(#84,#85,#86,#87));
#399=EDGE_LOOP('',(#88,#89,#90,#91));
#400=EDGE_LOOP('',(#92,#93,#94,#95));
#401=EDGE_LOOP('',(#96,#97,#98,#99));
#402=EDGE_LOOP('',(#100,#101,#102,#103));
#403=EDGE_LOOP('',(#104,#105,#106,#107));
#404=EDGE_LOOP('',(#108,#109,#110,#111));
#405=EDGE_LOOP('',(#112,#113,#114,#115));
#406=EDGE_LOOP('',(#116,#117,#118,#119));
#407=EDGE_LOOP('',(#120,#121,#122,#123));
#408=EDGE_LOOP('',(#124));
#409=EDGE_LOOP('',(#125));
#410=EDGE_LOOP('',(#126,#127,#128,#129));
#411=EDGE_LOOP('',(#130,#131,#132,#133));
#412=EDGE_LOOP('',(#134,#135,#136,#137));
#413=EDGE_LOOP('',(#138,#139,#140,#141));
#414=EDGE_LOOP('',(#142,#143,#144,#145));
#415=EDGE_LOOP('',(#146));
#416=EDGE_LOOP('',(#147,#148,#149,#150));
#417=EDGE_LOOP('',(#151));
#418=FACE_BOUND('',#380,.T.);
#419=FACE_BOUND('',#381,.T.);
#420=FACE_BOUND('',#382,.T.);
#421=FACE_BOUND('',#383,.T.);
#422=FACE_BOUND('',#384,.T.);
#423=FACE_BOUND('',#385,.T.);
#424=FACE_BOUND('',#386,.T.);
#425=FACE_BOUND('',#387,.T.);
#426=FACE_BOUND('',#388,.T.);
#427=FACE_BOUND('',#389,.T.);
#428=FACE_BOUND('',#390,.T.);
#429=FACE_BOUND('',#391,.T.);
#430=FACE_BOUND('',#392,.T.);
#431=FACE_BOUND('',#393,.T.);
#432=FACE_BOUND('',#394,.T.);
#433=FACE_BOUND('',#395,.T.);
#434=FACE_BOUND('',#396,.T.);
#435=FACE_BOUND('',#397,.T.);
#436=FACE_BOUND('',#398,.T.);
#437=FACE_BOUND('',#399,.T.);
#438=FACE_BOUND('',#400,.T.);
#439=FACE_BOUND('',#401,.T.);
#440=FACE_BOUND('',#402,.T.);
#441=FACE_BOUND('',#403,.T.);
#442=FACE_BOUND('',#404,.T.);
#443=FACE_BOUND('',#405,.T.);
#444=FACE_BOUND('',#406,.T.);
#445=FACE_BOUND('',#407,.T.);
#446=FACE_BOUND('',#408,.T.);
#447=FACE_BOUND('',#409,.T.);
#448=FACE_BOUND('',#410,.T.);
#449=FACE_BOUND('',#411,.T.);
#450=FACE_BOUND('',#412,.T.);
#451=FACE_BOUND('',#413,.T.);
#452=FACE_BOUND('',#414,.T.);
#453=FACE_BOUND('',#415,.T.);
#454=FACE_BOUND('',#416,.T.);
#455=FACE_BOUND('',#417,.T.);
#456=PLANE('',#557);
#457=PLANE('',#561);
#458=PLANE('',#562);
#459=PLANE('',#563);
#460=PLANE('',#564);
#461=PLANE('',#565);
#462=PLANE('',#566);
#463=PLANE('',#567);
#464=PLANE('',#568);
#465=PLANE('',#569);
#466=PLANE('',#570);
#467=PLANE('',#571);
#468=PLANE('',#573);
#469=PLANE('',#574);
#470=PLANE('',#575);
#471=PLANE('',#576);
#472=PLANE('',#577);
#473=PLANE('',#578);
#474=PLANE('',#580);
#475=PLANE('',#581);
#476=PLANE('',#582);
#477=PLANE('',#583);
#478=PLANE('',#584);
#479=PLANE('',#585);
#480=PLANE('',#589);
#481=PLANE('',#590);
#482=PLANE('',#591);
#483=PLANE('',#592);
#484=PLANE('',#593);
#485=PLANE('',#594);
#486=PLANE('',#595);
#487=ADVANCED_FACE('',(#418),#456,.F.);
#488=ADVANCED_FACE('',(#419,#420),#22,.F.);
#489=ADVANCED_FACE('',(#421),#457,.T.);
#490=ADVANCED_FACE('',(#422),#458,.T.);
#491=ADVANCED_FACE('',(#423),#459,.F.);
#492=ADVANCED_FACE('',(#424,#425),#460,.T.);
#493=ADVANCED_FACE('',(#426),#461,.F.);
#494=ADVANCED_FACE('',(#427),#462,.T.);
#495=ADVANCED_FACE('',(#428),#463,.F.);
#496=ADVANCED_FACE('',(#429),#464,.F.);
#497=ADVANCED_FACE('',(#430,#431),#465,.T.);
#498=ADVANCED_FACE('',(#432),#466,.T.);
#499=ADVANCED_FACE('',(#433),#467,.F.);
#500=ADVANCED_FACE('',(#434),#468,.T.);
#501=ADVANCED_FACE('',(#435),#469,.T.);
#502=ADVANCED_FACE('',(#436),#470,.F.);
#503=ADVANCED_FACE('',(#437),#471,.F.);
#504=ADVANCED_FACE('',(#438),#472,.T.);
#505=ADVANCED_FACE('',(#439),#473,.F.);
#506=ADVANCED_FACE('',(#440),#474,.T.);
#507=ADVANCED_FACE('',(#441),#475,.F.);
#508=ADVANCED_FACE('',(#442),#476,.F.);
#509=ADVANCED_FACE('',(#443),#477,.T.);
#510=ADVANCED_FACE('',(#444),#478,.T.);
#511=ADVANCED_FACE('',(#445),#479,.F.);
#512=ADVANCED_FACE('',(#446,#447),#23,.T.);
#513=ADVANCED_FACE('',(#448),#480,.T.);
#514=ADVANCED_FACE('',(#449),#481,.F.);
#515=ADVANCED_FACE('',(#450),#482,.T.);
#516=ADVANCED_FACE('',(#451),#483,.T.);
#517=ADVANCED_FACE('',(#452,#453),#484,.F.);
#518=ADVANCED_FACE('',(#454),#485,.F.);
#519=ADVANCED_FACE('',(#455),#486,.T.);
#520=CLOSED_SHELL('',(#487,#488,#489,#490,#491,#492,#493,#494,#495,#496,
#497,#498,#499));
#521=CLOSED_SHELL('',(#500,#501,#502,#503,#504,#505));
#522=CLOSED_SHELL('',(#506,#507,#508,#509,#510,#511));
#523=CLOSED_SHELL('',(#512,#513,#514,#515,#516,#517,#518,#519));
#524=STYLED_ITEM('',(#527),#548);
#525=STYLED_ITEM('',(#528),#549);
#526=STYLED_ITEM('',(#529),#11);
#527=PRESENTATION_STYLE_ASSIGNMENT((#530));
#528=PRESENTATION_STYLE_ASSIGNMENT((#531));
#529=PRESENTATION_STYLE_ASSIGNMENT((#532));
#530=SURFACE_STYLE_USAGE(.BOTH.,#533);
#531=SURFACE_STYLE_USAGE(.BOTH.,#534);
#532=SURFACE_STYLE_USAGE(.BOTH.,#535);
#533=SURFACE_SIDE_STYLE('',(#536));
#534=SURFACE_SIDE_STYLE('',(#537));
#535=SURFACE_SIDE_STYLE('',(#538));
#536=SURFACE_STYLE_FILL_AREA(#539);
#537=SURFACE_STYLE_FILL_AREA(#540);
#538=SURFACE_STYLE_FILL_AREA(#541);
#539=FILL_AREA_STYLE('',(#542));
#540=FILL_AREA_STYLE('',(#543));
#541=FILL_AREA_STYLE('',(#544));
#542=FILL_AREA_STYLE_COLOUR('',#545);
#543=FILL_AREA_STYLE_COLOUR('',#546);
#544=FILL_AREA_STYLE_COLOUR('',#547);
#545=COLOUR_RGB('',0.615686274509804,0.811764705882353,0.929411764705882);
#546=COLOUR_RGB('',0.498039215686275,0.498039215686275,0.498039215686275);
#547=COLOUR_RGB('',0.972549019607843,0.529411764705882,0.00392156862745098);
#548=MANIFOLD_SOLID_BREP('Cage',#520);
#549=MANIFOLD_SOLID_BREP('AirInside',#521);
#550=SHAPE_DEFINITION_REPRESENTATION(#898,#553);
#551=SHAPE_DEFINITION_REPRESENTATION(#899,#554);
#552=SHAPE_DEFINITION_REPRESENTATION(#900,#555);
#553=SHAPE_REPRESENTATION('Cage',(#556),#883);
#554=SHAPE_REPRESENTATION('AirInside',(#572),#884);
#555=SHAPE_REPRESENTATION('AirOutside',(#579),#885);
#556=AXIS2_PLACEMENT_3D('',#736,#596,#597);
#557=AXIS2_PLACEMENT_3D('',#737,#598,#599);
#558=AXIS2_PLACEMENT_3D('',#746,#604,#605);
#559=AXIS2_PLACEMENT_3D('',#747,#606,#607);
#560=AXIS2_PLACEMENT_3D('',#749,#608,#609);
#561=AXIS2_PLACEMENT_3D('',#751,#610,#611);
#562=AXIS2_PLACEMENT_3D('',#760,#616,#617);
#563=AXIS2_PLACEMENT_3D('',#763,#620,#621);
#564=AXIS2_PLACEMENT_3D('',#765,#623,#624);
#565=AXIS2_PLACEMENT_3D('',#767,#626,#627);
#566=AXIS2_PLACEMENT_3D('',#776,#632,#633);
#567=AXIS2_PLACEMENT_3D('',#782,#637,#638);
#568=AXIS2_PLACEMENT_3D('',#786,#641,#642);
#569=AXIS2_PLACEMENT_3D('',#790,#645,#646);
#570=AXIS2_PLACEMENT_3D('',#792,#648,#649);
#571=AXIS2_PLACEMENT_3D('',#793,#650,#651);
#572=AXIS2_PLACEMENT_3D('',#794,#652,#653);
#573=AXIS2_PLACEMENT_3D('',#795,#654,#655);
#574=AXIS2_PLACEMENT_3D('',#804,#660,#661);
#575=AXIS2_PLACEMENT_3D('',#810,#665,#666);
#576=AXIS2_PLACEMENT_3D('',#816,#670,#671);
#577=AXIS2_PLACEMENT_3D('',#819,#674,#675);
#578=AXIS2_PLACEMENT_3D('',#820,#676,#677);
#579=AXIS2_PLACEMENT_3D('',#821,#678,#679);
#580=AXIS2_PLACEMENT_3D('',#822,#680,#681);
#581=AXIS2_PLACEMENT_3D('',#831,#686,#687);
#582=AXIS2_PLACEMENT_3D('',#837,#691,#692);
#583=AXIS2_PLACEMENT_3D('',#843,#696,#697);
#584=AXIS2_PLACEMENT_3D('',#846,#700,#701);
#585=AXIS2_PLACEMENT_3D('',#847,#702,#703);
#586=AXIS2_PLACEMENT_3D('',#848,#704,#705);
#587=AXIS2_PLACEMENT_3D('',#849,#706,#707);
#588=AXIS2_PLACEMENT_3D('',#851,#708,#709);
#589=AXIS2_PLACEMENT_3D('',#853,#710,#711);
#590=AXIS2_PLACEMENT_3D('',#862,#716,#717);
#591=AXIS2_PLACEMENT_3D('',#868,#721,#722);
#592=AXIS2_PLACEMENT_3D('',#872,#725,#726);
#593=AXIS2_PLACEMENT_3D('',#876,#729,#730);
#594=AXIS2_PLACEMENT_3D('',#878,#732,#733);
#595=AXIS2_PLACEMENT_3D('',#879,#734,#735);
#596=DIRECTION('',(0.,0.,1.));
#597=DIRECTION('',(1.,0.,0.));
#598=DIRECTION('',(0.,1.,0.));
#599=DIRECTION('',(1.,0.,0.));
#600=DIRECTION('',(1.,0.,-9.37688365392869E-17));
#601=DIRECTION('',(-9.37688365392869E-17,0.,-1.));
#602=DIRECTION('',(1.,0.,-9.37688365392869E-17));
#603=DIRECTION('',(9.37688365392869E-17,0.,1.));
#604=DIRECTION('',(0.,0.,-1.));
#605=DIRECTION('',(0.,1.,0.));
#606=DIRECTION('',(0.,0.,-1.));
#607=DIRECTION('',(0.,1.,0.));
#608=DIRECTION('',(0.,0.,1.));
#609=DIRECTION('',(0.,-1.,0.));
#610=DIRECTION('',(0.,1.,0.));
#611=DIRECTION('',(1.,0.,0.));
#612=DIRECTION('',(1.,0.,0.));
#613=DIRECTION('',(9.37688365392869E-17,0.,1.));
#614=DIRECTION('',(1.,0.,0.));
#615=DIRECTION('',(9.37688365392869E-17,0.,1.));
#616=DIRECTION('',(-1.,0.,9.37688365392869E-17));
#617=DIRECTION('',(9.37688365392869E-17,0.,1.));
#618=DIRECTION('',(0.,1.,0.));
#619=DIRECTION('',(0.,1.,0.));
#620=DIRECTION('',(0.,0.,1.));
#621=DIRECTION('',(0.,-1.,0.));
#622=DIRECTION('',(0.,1.,0.));
#623=DIRECTION('',(0.,0.,1.));
#624=DIRECTION('',(0.,-1.,0.));
#625=DIRECTION('',(0.,1.,0.));
#626=DIRECTION('',(0.,1.,0.));
#627=DIRECTION('',(1.,0.,0.));
#628=DIRECTION('',(1.,0.,0.));
#629=DIRECTION('',(9.25185853854297E-17,0.,1.));
#630=DIRECTION('',(1.,0.,0.));
#631=DIRECTION('',(9.25185853854297E-17,0.,1.));
#632=DIRECTION('',(1.,0.,-9.25185853854297E-17));
#633=DIRECTION('',(-9.25185853854297E-17,0.,-1.));
#634=DIRECTION('',(0.,-1.,0.));
#635=DIRECTION('',(9.25185853854297E-17,0.,1.));
#636=DIRECTION('',(0.,-1.,0.));
#637=DIRECTION('',(0.,0.,-1.));
#638=DIRECTION('',(0.,1.,0.));
#639=DIRECTION('',(1.,0.,0.));
#640=DIRECTION('',(0.,-1.,0.));
#641=DIRECTION('',(1.,0.,-9.25185853854297E-17));
#642=DIRECTION('',(-9.25185853854297E-17,0.,-1.));
#643=DIRECTION('',(9.25185853854297E-17,0.,1.));
#644=DIRECTION('',(0.,-1.,0.));
#645=DIRECTION('',(0.,0.,-1.));
#646=DIRECTION('',(0.,1.,0.));
#647=DIRECTION('',(1.,0.,0.));
#648=DIRECTION('',(0.,1.,0.));
#649=DIRECTION('',(1.,0.,0.));
#650=DIRECTION('',(-1.,0.,9.37688365392869E-17));
#651=DIRECTION('',(9.37688365392869E-17,0.,1.));
#652=DIRECTION('',(0.,0.,1.));
#653=DIRECTION('',(1.,0.,0.));
#654=DIRECTION('',(0.,1.,0.));
#655=DIRECTION('',(1.,0.,0.));
#656=DIRECTION('',(1.,0.,0.));
#657=DIRECTION('',(0.,0.,-1.));
#658=DIRECTION('',(1.,0.,0.));
#659=DIRECTION('',(0.,0.,-1.));
#660=DIRECTION('',(-1.,0.,0.));
#661=DIRECTION('',(0.,1.,0.));
#662=DIRECTION('',(0.,1.,0.));
#663=DIRECTION('',(0.,0.,-1.));
#664=DIRECTION('',(0.,1.,0.));
#665=DIRECTION('',(0.,1.,0.));
#666=DIRECTION('',(1.,0.,0.));
#667=DIRECTION('',(1.,0.,0.));
#668=DIRECTION('',(0.,0.,-1.));
#669=DIRECTION('',(1.,0.,0.));
#670=DIRECTION('',(-1.,0.,0.));
#671=DIRECTION('',(0.,1.,0.));
#672=DIRECTION('',(0.,1.,0.));
#673=DIRECTION('',(0.,1.,0.));
#674=DIRECTION('',(0.,0.,1.));
#675=DIRECTION('',(1.,0.,0.));
#676=DIRECTION('',(0.,0.,1.));
#677=DIRECTION('',(1.,0.,0.));
#678=DIRECTION('',(0.,0.,1.));
#679=DIRECTION('',(1.,0.,0.));
#680=DIRECTION('',(1.,0.,0.));
#681=DIRECTION('',(0.,-1.,0.));
#682=DIRECTION('',(0.,0.,1.));
#683=DIRECTION('',(0.,-1.,0.));
#684=DIRECTION('',(0.,0.,1.));
#685=DIRECTION('',(0.,-1.,0.));
#686=DIRECTION('',(0.,0.,1.));
#687=DIRECTION('',(0.,-1.,0.));
#688=DIRECTION('',(-1.,0.,0.));
#689=DIRECTION('',(0.,-1.,0.));
#690=DIRECTION('',(-1.,0.,0.));
#691=DIRECTION('',(1.,0.,0.));
#692=DIRECTION('',(0.,-1.,0.));
#693=DIRECTION('',(0.,0.,1.));
#694=DIRECTION('',(0.,-1.,0.));
#695=DIRECTION('',(0.,0.,1.));
#696=DIRECTION('',(0.,0.,1.));
#697=DIRECTION('',(0.,-1.,0.));
#698=DIRECTION('',(-1.,0.,0.));
#699=DIRECTION('',(-1.,0.,0.));
#700=DIRECTION('',(0.,1.,0.));
#701=DIRECTION('',(1.,0.,0.));
#702=DIRECTION('',(0.,1.,0.));
#703=DIRECTION('',(1.,0.,0.));
#704=DIRECTION('',(0.,0.,-1.));
#705=DIRECTION('',(0.,1.,0.));
#706=DIRECTION('',(0.,0.,-1.));
#707=DIRECTION('',(0.,1.,0.));
#708=DIRECTION('',(0.,0.,1.));
#709=DIRECTION('',(0.,-1.,0.));
#710=DIRECTION('',(0.,1.,0.));
#711=DIRECTION('',(1.,0.,0.));
#712=DIRECTION('',(1.,0.,0.));
#713=DIRECTION('',(9.25185853854297E-17,0.,1.));
#714=DIRECTION('',(1.,0.,0.));
#715=DIRECTION('',(9.25185853854297E-17,0.,1.));
#716=DIRECTION('',(1.,0.,-9.25185853854297E-17));
#717=DIRECTION('',(-9.25185853854297E-17,0.,-1.));
#718=DIRECTION('',(0.,-1.,0.));
#719=DIRECTION('',(9.25185853854297E-17,0.,1.));
#720=DIRECTION('',(0.,-1.,0.));
#721=DIRECTION('',(0.,0.,-1.));
#722=DIRECTION('',(0.,1.,0.));
#723=DIRECTION('',(0.,-1.,0.));
#724=DIRECTION('',(1.,0.,0.));
#725=DIRECTION('',(1.,0.,-9.25185853854297E-17));
#726=DIRECTION('',(-9.25185853854297E-17,0.,-1.));
#727=DIRECTION('',(0.,-1.,0.));
#728=DIRECTION('',(9.25185853854297E-17,0.,1.));
#729=DIRECTION('',(0.,0.,-1.));
#730=DIRECTION('',(0.,1.,0.));
#731=DIRECTION('',(1.,0.,0.));
#732=DIRECTION('',(0.,1.,0.));
#733=DIRECTION('',(1.,0.,0.));
#734=DIRECTION('',(0.,0.,1.));
#735=DIRECTION('',(1.,0.,0.));
#736=CARTESIAN_POINT('',(0.,0.,0.));
#737=CARTESIAN_POINT('',(-0.0475,0.059,8.81427063469297E-18));
#738=CARTESIAN_POINT('',(-0.0475,0.059,0.074));
#739=CARTESIAN_POINT('',(-0.0465,0.059,0.074));
#740=CARTESIAN_POINT('',(0.0465,0.059,0.074));
#741=CARTESIAN_POINT('',(-0.0465,0.059,0.));
#742=CARTESIAN_POINT('',(-0.0465,0.059,-0.074));
#743=CARTESIAN_POINT('',(-0.0475,0.059,-0.074));
#744=CARTESIAN_POINT('',(0.0465,0.059,-0.074));
#745=CARTESIAN_POINT('',(0.0465,0.059,-3.83379189717561E-50));
#746=CARTESIAN_POINT('',(0.,0.0114252520725131,-0.05));
#747=CARTESIAN_POINT('',(0.,0.0114252520725131,-0.075));
#748=CARTESIAN_POINT('',(0.,0.0154252520725131,-0.075));
#749=CARTESIAN_POINT('',(0.,0.0114252520725131,-0.074));
#750=CARTESIAN_POINT('',(0.,0.0074252520725131,-0.074));
#751=CARTESIAN_POINT('',(0.,0.001,0.));
#752=CARTESIAN_POINT('',(-6.93889390390723E-18,0.001,-0.074));
#753=CARTESIAN_POINT('',(-0.0465,0.001,-0.074));
#754=CARTESIAN_POINT('',(0.0465,0.001,-0.074));
#755=CARTESIAN_POINT('',(-0.0465,0.001,0.));
#756=CARTESIAN_POINT('',(-0.0465,0.001,0.074));
#757=CARTESIAN_POINT('',(6.93889390390723E-18,0.001,0.074));
#758=CARTESIAN_POINT('',(0.0465,0.001,0.074));
#759=CARTESIAN_POINT('',(0.0465,0.001,0.));
#760=CARTESIAN_POINT('',(0.0465,0.001,0.));
#761=CARTESIAN_POINT('',(0.0465,0.001,-0.074));
#762=CARTESIAN_POINT('',(0.0465,0.001,0.074));
#763=CARTESIAN_POINT('',(6.93889390390723E-18,0.001,0.074));
#764=CARTESIAN_POINT('',(-0.0465,0.001,0.074));
#765=CARTESIAN_POINT('',(-6.93889390390723E-18,0.001,-0.074));
#766=CARTESIAN_POINT('',(-0.0465,0.001,-0.074));
#767=CARTESIAN_POINT('',(0.,0.,0.));
#768=CARTESIAN_POINT('',(-6.93889390390723E-18,0.,-0.075));
#769=CARTESIAN_POINT('',(-0.0475,0.,-0.075));
#770=CARTESIAN_POINT('',(0.0475,0.,-0.075));
#771=CARTESIAN_POINT('',(0.0475,0.,0.));
#772=CARTESIAN_POINT('',(0.0475,0.,0.075));
#773=CARTESIAN_POINT('',(6.93889390390723E-18,0.,0.075));
#774=CARTESIAN_POINT('',(-0.0475,0.,0.075));
#775=CARTESIAN_POINT('',(-0.0475,0.,0.));
#776=CARTESIAN_POINT('',(0.0475,0.06,0.));
#777=CARTESIAN_POINT('',(0.0475,0.06,-0.075));
#778=CARTESIAN_POINT('',(0.0475,0.06,-0.075));
#779=CARTESIAN_POINT('',(0.0475,0.06,0.));
#780=CARTESIAN_POINT('',(0.0475,0.06,0.075));
#781=CARTESIAN_POINT('',(0.0475,0.06,0.075));
#782=CARTESIAN_POINT('',(6.93889390390723E-18,0.06,0.075));
#783=CARTESIAN_POINT('',(6.93889390390723E-18,0.06,0.075));
#784=CARTESIAN_POINT('',(-0.0475,0.06,0.075));
#785=CARTESIAN_POINT('',(-0.0475,0.06,0.075));
#786=CARTESIAN_POINT('',(-0.0475,0.06,0.));
#787=CARTESIAN_POINT('',(-0.0475,0.06,0.));
#788=CARTESIAN_POINT('',(-0.0475,0.06,-0.075));
#789=CARTESIAN_POINT('',(-0.0475,0.06,-0.075));
#790=CARTESIAN_POINT('',(-6.93889390390723E-18,0.06,-0.075));
#791=CARTESIAN_POINT('',(-6.93889390390723E-18,0.06,-0.075));
#792=CARTESIAN_POINT('',(0.,0.06,0.));
#793=CARTESIAN_POINT('',(-0.0465,0.001,0.));
#794=CARTESIAN_POINT('',(0.,0.,0.));
#795=CARTESIAN_POINT('',(0.,0.059,0.074));
#796=CARTESIAN_POINT('',(0.,0.059,-0.074));
#797=CARTESIAN_POINT('',(-0.0465,0.059,-0.074));
#798=CARTESIAN_POINT('',(0.0465,0.059,-0.074));
#799=CARTESIAN_POINT('',(-0.0465,0.059,0.074));
#800=CARTESIAN_POINT('',(-0.0465,0.059,0.074));
#801=CARTESIAN_POINT('',(0.,0.059,0.074));
#802=CARTESIAN_POINT('',(0.0465,0.059,0.074));
#803=CARTESIAN_POINT('',(0.0465,0.059,0.074));
#804=CARTESIAN_POINT('',(-0.0465,0.03,0.074));
#805=CARTESIAN_POINT('',(-0.0465,0.03,-0.074));
#806=CARTESIAN_POINT('',(-0.0465,0.001,-0.074));
#807=CARTESIAN_POINT('',(-0.0465,0.001,0.074));
#808=CARTESIAN_POINT('',(-0.0465,0.001,0.074));
#809=CARTESIAN_POINT('',(-0.0465,0.03,0.074));
#810=CARTESIAN_POINT('',(-6.93889390390723E-18,0.001,0.074));
#811=CARTESIAN_POINT('',(-6.93889390390723E-18,0.001,-0.074));
#812=CARTESIAN_POINT('',(0.0465,0.001,-0.074));
#813=CARTESIAN_POINT('',(0.0465,0.001,0.074));
#814=CARTESIAN_POINT('',(0.0465,0.001,0.074));
#815=CARTESIAN_POINT('',(-6.93889390390723E-18,0.001,0.074));
#816=CARTESIAN_POINT('',(0.0465,0.03,0.074));
#817=CARTESIAN_POINT('',(0.0465,0.03,-0.074));
#818=CARTESIAN_POINT('',(0.0465,0.03,0.074));
#819=CARTESIAN_POINT('',(-6.93889390390723E-18,0.03,0.074));
#820=CARTESIAN_POINT('',(-6.93889390390723E-18,0.03,-0.074));
#821=CARTESIAN_POINT('',(0.,0.,0.));
#822=CARTESIAN_POINT('',(0.15,0.15,0.));
#823=CARTESIAN_POINT('',(0.15,-0.15,0.));
#824=CARTESIAN_POINT('',(0.15,-0.15,-0.15));
#825=CARTESIAN_POINT('',(0.15,-0.15,0.15));
#826=CARTESIAN_POINT('',(0.15,0.15,-0.15));
#827=CARTESIAN_POINT('',(0.15,0.15,-0.15));
#828=CARTESIAN_POINT('',(0.15,0.15,0.));
#829=CARTESIAN_POINT('',(0.15,0.15,0.15));
#830=CARTESIAN_POINT('',(0.15,0.15,0.15));
#831=CARTESIAN_POINT('',(0.,0.15,-0.15));
#832=CARTESIAN_POINT('',(0.,-0.15,-0.15));
#833=CARTESIAN_POINT('',(-0.15,-0.15,-0.15));
#834=CARTESIAN_POINT('',(-0.15,0.15,-0.15));
#835=CARTESIAN_POINT('',(-0.15,0.15,-0.15));
#836=CARTESIAN_POINT('',(0.,0.15,-0.15));
#837=CARTESIAN_POINT('',(-0.15,0.15,0.));
#838=CARTESIAN_POINT('',(-0.15,-0.15,0.));
#839=CARTESIAN_POINT('',(-0.15,-0.15,0.15));
#840=CARTESIAN_POINT('',(-0.15,0.15,0.15));
#841=CARTESIAN_POINT('',(-0.15,0.15,0.15));
#842=CARTESIAN_POINT('',(-0.15,0.15,0.));
#843=CARTESIAN_POINT('',(-2.77555756156289E-17,0.15,0.15));
#844=CARTESIAN_POINT('',(-2.77555756156289E-17,-0.15,0.15));
#845=CARTESIAN_POINT('',(-2.77555756156289E-17,0.15,0.15));
#846=CARTESIAN_POINT('',(0.,0.15,0.));
#847=CARTESIAN_POINT('',(0.,-0.15,0.));
#848=CARTESIAN_POINT('',(0.,0.0114252520725131,-0.05));
#849=CARTESIAN_POINT('',(0.,0.0114252520725131,-0.075));
#850=CARTESIAN_POINT('',(0.,0.0154252520725131,-0.075));
#851=CARTESIAN_POINT('',(0.,0.0114252520725131,-0.074));
#852=CARTESIAN_POINT('',(0.,0.0074252520725131,-0.074));
#853=CARTESIAN_POINT('',(0.,0.,0.));
#854=CARTESIAN_POINT('',(-6.93889390390723E-18,0.,-0.075));
#855=CARTESIAN_POINT('',(-0.0475,0.,-0.075));
#856=CARTESIAN_POINT('',(0.0475,0.,-0.075));
#857=CARTESIAN_POINT('',(-0.0475,0.,0.));
#858=CARTESIAN_POINT('',(-0.0475,0.,0.075));
#859=CARTESIAN_POINT('',(6.93889390390723E-18,0.,0.075));
#860=CARTESIAN_POINT('',(0.0475,0.,0.075));
#861=CARTESIAN_POINT('',(0.0475,0.,0.));
#862=CARTESIAN_POINT('',(0.0475,0.06,0.));
#863=CARTESIAN_POINT('',(0.0475,0.06,0.075));
#864=CARTESIAN_POINT('',(0.0475,0.06,0.075));
#865=CARTESIAN_POINT('',(0.0475,0.06,0.));
#866=CARTESIAN_POINT('',(0.0475,0.06,-0.075));
#867=CARTESIAN_POINT('',(0.0475,0.06,-0.075));
#868=CARTESIAN_POINT('',(6.93889390390723E-18,0.06,0.075));
#869=CARTESIAN_POINT('',(-0.0475,0.06,0.075));
#870=CARTESIAN_POINT('',(-0.0475,0.06,0.075));
#871=CARTESIAN_POINT('',(6.93889390390723E-18,0.06,0.075));
#872=CARTESIAN_POINT('',(-0.0475,0.06,0.));
#873=CARTESIAN_POINT('',(-0.0475,0.06,-0.075));
#874=CARTESIAN_POINT('',(-0.0475,0.06,-0.075));
#875=CARTESIAN_POINT('',(-0.0475,0.06,0.));
#876=CARTESIAN_POINT('',(-6.93889390390723E-18,0.06,-0.075));
#877=CARTESIAN_POINT('',(-6.93889390390723E-18,0.06,-0.075));
#878=CARTESIAN_POINT('',(0.,0.06,0.));
#879=CARTESIAN_POINT('',(-6.93889390390723E-18,0.03,-0.074));
#880=MECHANICAL_DESIGN_GEOMETRIC_PRESENTATION_REPRESENTATION('',(#524),
#883);
#881=MECHANICAL_DESIGN_GEOMETRIC_PRESENTATION_REPRESENTATION('',(#525),
#884);
#882=MECHANICAL_DESIGN_GEOMETRIC_PRESENTATION_REPRESENTATION('',(#526),
#885);
#883=(
GEOMETRIC_REPRESENTATION_CONTEXT(3)
GLOBAL_UNCERTAINTY_ASSIGNED_CONTEXT((#886))
GLOBAL_UNIT_ASSIGNED_CONTEXT((#895,#892,#889))
REPRESENTATION_CONTEXT('Cage','TOP_LEVEL_ASSEMBLY_PART')
);
#884=(
GEOMETRIC_REPRESENTATION_CONTEXT(3)
GLOBAL_UNCERTAINTY_ASSIGNED_CONTEXT((#887))
GLOBAL_UNIT_ASSIGNED_CONTEXT((#896,#893,#890))
REPRESENTATION_CONTEXT('AirInside','TOP_LEVEL_ASSEMBLY_PART')
);
#885=(
GEOMETRIC_REPRESENTATION_CONTEXT(3)
GLOBAL_UNCERTAINTY_ASSIGNED_CONTEXT((#888))
GLOBAL_UNIT_ASSIGNED_CONTEXT((#897,#894,#891))
REPRESENTATION_CONTEXT('AirOutside','TOP_LEVEL_ASSEMBLY_PART')
);
#886=UNCERTAINTY_MEASURE_WITH_UNIT(LENGTH_MEASURE(1.E-6),#895,
'DISTANCE_ACCURACY_VALUE','Maximum Tolerance applied to model');
#887=UNCERTAINTY_MEASURE_WITH_UNIT(LENGTH_MEASURE(1.E-8),#896,
'DISTANCE_ACCURACY_VALUE','Maximum Tolerance applied to model');
#888=UNCERTAINTY_MEASURE_WITH_UNIT(LENGTH_MEASURE(1.E-6),#897,
'DISTANCE_ACCURACY_VALUE','Maximum Tolerance applied to model');
#889=(
NAMED_UNIT(*)
SI_UNIT($,.STERADIAN.)
SOLID_ANGLE_UNIT()
);
#890=(
NAMED_UNIT(*)
SI_UNIT($,.STERADIAN.)
SOLID_ANGLE_UNIT()
);
#891=(
NAMED_UNIT(*)
SI_UNIT($,.STERADIAN.)
SOLID_ANGLE_UNIT()
);
#892=(
NAMED_UNIT(*)
PLANE_ANGLE_UNIT()
SI_UNIT($,.RADIAN.)
);
#893=(
NAMED_UNIT(*)
PLANE_ANGLE_UNIT()
SI_UNIT($,.RADIAN.)
);
#894=(
NAMED_UNIT(*)
PLANE_ANGLE_UNIT()
SI_UNIT($,.RADIAN.)
);
#895=(
LENGTH_UNIT()
NAMED_UNIT(*)
SI_UNIT($,.METRE.)
);
#896=(
LENGTH_UNIT()
NAMED_UNIT(*)
SI_UNIT($,.METRE.)
);
#897=(
LENGTH_UNIT()
NAMED_UNIT(*)
SI_UNIT($,.METRE.)
);
#898=PRODUCT_DEFINITION_SHAPE('','',#901);
#899=PRODUCT_DEFINITION_SHAPE('','',#902);
#900=PRODUCT_DEFINITION_SHAPE('','',#903);
#901=PRODUCT_DEFINITION('','',#907,#904);
#902=PRODUCT_DEFINITION('','',#908,#905);
#903=PRODUCT_DEFINITION('','',#909,#906);
#904=PRODUCT_DEFINITION_CONTEXT('',#925,'design');
#905=PRODUCT_DEFINITION_CONTEXT('',#926,'design');
#906=PRODUCT_DEFINITION_CONTEXT('',#927,'design');
#907=PRODUCT_DEFINITION_FORMATION_WITH_SPECIFIED_SOURCE('','',#913,
 .NOT_KNOWN.);
#908=PRODUCT_DEFINITION_FORMATION_WITH_SPECIFIED_SOURCE('','',#914,
 .NOT_KNOWN.);
#909=PRODUCT_DEFINITION_FORMATION_WITH_SPECIFIED_SOURCE('','',#915,
 .NOT_KNOWN.);
#910=PRODUCT_RELATED_PRODUCT_CATEGORY('','',(#913));
#911=PRODUCT_RELATED_PRODUCT_CATEGORY('','',(#914));
#912=PRODUCT_RELATED_PRODUCT_CATEGORY('','',(#915));
#913=PRODUCT('Cage','Cage','Cage',(#919));
#914=PRODUCT('AirInside','AirInside','AirInside',(#920));
#915=PRODUCT('AirOutside','AirOutside','AirOutside',(#921));
#916=PRODUCT_CATEGORY('','');
#917=PRODUCT_CATEGORY('','');
#918=PRODUCT_CATEGORY('','');
#919=PRODUCT_CONTEXT('',#925,'mechanical');
#920=PRODUCT_CONTEXT('',#926,'mechanical');
#921=PRODUCT_CONTEXT('',#927,'mechanical');
#922=APPLICATION_PROTOCOL_DEFINITION('international standard',
'ap242_managed_model_based_3d_engineering',2020,#925);
#923=APPLICATION_PROTOCOL_DEFINITION('international standard',
'ap242_managed_model_based_3d_engineering',2020,#926);
#924=APPLICATION_PROTOCOL_DEFINITION('international standard',
'ap242_managed_model_based_3d_engineering',2020,#927);
#925=APPLICATION_CONTEXT('managed model based 3d engineering');
#926=APPLICATION_CONTEXT('managed model based 3d engineering');
#927=APPLICATION_CONTEXT('managed model based 3d engineering');
ENDSEC;
END-ISO-10303-21;
