$MeshFormat
2.2 0 8
$EndMeshFormat
$PhysicalNames
7
2 4 "Positive"
2 5 "Negative"
2 6 "NofluxBoundaries"
2 7 "FloatingPotentialBoundaries"
3 1 "Cage"
3 2 "AirInside"
3 3 "AirOutside"
$EndPhysicalNames
$Nodes
549
1 -46.5 59 74
2 46.5 59 74
3 -46.5 59 -74
4 46.5 59 -74
5 0 15.4252520725131 -75
6 -9.797174393178826e-16 15.4252520725131 -74
7 0 7.4252520725131 -74
8 -46.5 1 -74
9 46.5 1 -74
10 -46.5 1 74
11 46.5 1 74
12 -47.5 0 -75
13 47.5 0 -75
14 47.5 0 75
15 -47.5 0 75
16 47.5 60 -75
17 47.5 60 75
18 -47.5 60 75
19 -47.5 60 -75
20 -46.5 59 -74
21 46.5 59 -74
22 -46.5 59 74
23 46.5 59 74
24 -46.5 1 -74
25 -46.5 1 74
26 46.5 1 -74
27 46.5 1 74
28 150 -150 -150
29 150 -150 150
30 150 150 -150
31 150 150 150
32 -150 -150 -150
33 -150 150 -150
34 -150 -150 150
35 -150 150 150
36 0 15.4252520725131 -75
37 -9.797174393178826e-16 15.4252520725131 -74
38 0 7.4252520725131 -74
39 -47.5 0 -75
40 47.5 0 -75
41 -47.5 0 75
42 47.5 0 75
43 47.5 60 75
44 47.5 60 -75
45 -47.5 60 75
46 -47.5 60 -75
47 -4.263256414560601e-14 59 74
48 -46.5 59 24.66666666666681
49 -46.5 59 -24.66666666666639
50 -4.263256414560601e-14 59 -74
51 46.5 59 -24.66666666666681
52 46.5 59 24.66666666666639
53 3.127325929872122 13.91921127994803 -75
54 3.899711648727293 10.53516833668783 -75
55 1.735534956470217 7.821376600903416 -75
56 -1.735534956470251 7.821376600903433 -75
57 -3.899711648727298 10.53516833668786 -75
58 -3.127325929872113 13.91921127994804 -75
59 -9.797174393178826e-16 15.4252520725131 -74.5
60 3.464101615137757 9.425252072513105 -74
61 3.46410161513775 13.42525207251311 -74
62 -3.464101615137757 13.42525207251309 -74
63 -3.464101615137749 9.425252072513089 -74
64 -4.013456234019941e-14 1 -74
65 -46.5 1 -24.66666666666681
66 -46.5 1 24.66666666666639
67 -4.046762924758696e-14 1 74
68 46.5 1 -24.66666666666681
69 46.5 1 24.66666666666639
70 46.5 29.99999999999998 -74
71 46.5 29.99999999999998 74
72 -46.5 29.99999999999998 74
73 -46.5 29.99999999999998 -74
74 -1.267319582609616e-13 0 -75
75 47.5 0 -24.99999999999989
76 47.5 0 25.00000000000028
77 -1.270650251683492e-13 0 75
78 -47.5 0 -24.99999999999989
79 -47.5 0 25.00000000000028
80 47.5 29.99999999999997 -75
81 47.5 60 -24.99999999999989
82 47.5 60 25.00000000000028
83 47.5 29.99999999999997 75
84 -1.270650251683492e-13 60 75
85 -47.5 29.99999999999997 75
86 -47.5 60 -24.99999999999989
87 -47.5 60 25.00000000000028
88 -47.5 29.99999999999997 -75
89 -1.267319582609616e-13 60 -75
90 -4.030109579389318e-14 59 -74
91 -46.5 59 24.66666666666681
92 -46.5 59 -24.66666666666639
93 -4.030109579389318e-14 59 74
94 46.5 59 24.66666666666681
95 46.5 59 -24.66666666666639
96 -46.5 29.99999999999998 -74
97 -46.5 1 24.66666666666681
98 -46.5 1 -24.66666666666639
99 -46.5 29.99999999999998 74
100 -4.013456234019941e-14 1 -74
101 46.5 1 24.66666666666681
102 46.5 1 -24.66666666666639
103 -4.013456234019941e-14 1 74
104 46.5 29.99999999999998 -74
105 46.5 29.99999999999998 74
106 150 -150 -99.99999999999994
107 150 -150 -49.99999999999977
108 150 -150 3.922843882837707e-13
109 150 -150 50.00000000000057
110 150 -150 100.0000000000003
111 150 99.99999999999994 -150
112 150 49.99999999999977 -150
113 150 -3.979039320256561e-13 -150
114 150 -50.00000000000057 -150
115 150 -100.0000000000003 -150
116 150 150 -99.99999999999994
117 150 150 -49.99999999999977
118 150 150 3.922843882837707e-13
119 150 150 50.00000000000057
120 150 150 100.0000000000003
121 150 99.99999999999994 150
122 150 49.99999999999977 150
123 150 -3.979039320256561e-13 150
124 150 -50.00000000000057 150
125 150 -100.0000000000003 150
126 99.99999999999994 -150 -150
127 49.99999999999977 -150 -150
128 -3.922843882837707e-13 -150 -150
129 -50.00000000000057 -150 -150
130 -100.0000000000003 -150 -150
131 -150 99.99999999999994 -150
132 -150 49.99999999999977 -150
133 -150 -3.979039320256561e-13 -150
134 -150 -50.00000000000057 -150
135 -150 -100.0000000000003 -150
136 99.99999999999994 150 -150
137 49.99999999999977 150 -150
138 -3.922843882837707e-13 150 -150
139 -50.00000000000057 150 -150
140 -100.0000000000003 150 -150
141 -150 -150 -99.99999999999994
142 -150 -150 -49.99999999999977
143 -150 -150 3.922843882837707e-13
144 -150 -150 50.00000000000057
145 -150 -150 100.0000000000003
146 -150 99.99999999999994 150
147 -150 49.99999999999977 150
148 -150 -3.979039320256561e-13 150
149 -150 -50.00000000000057 150
150 -150 -100.0000000000003 150
151 -150 150 -99.99999999999994
152 -150 150 -49.99999999999977
153 -150 150 3.922843882837707e-13
154 -150 150 50.00000000000057
155 -150 150 100.0000000000003
156 99.99999999999994 -150 150
157 49.99999999999977 -150 150
158 -3.916182544689956e-13 -150 150
159 -50.00000000000057 -150 150
160 -100.0000000000003 -150 150
161 99.99999999999994 150 150
162 49.99999999999977 150 150
163 -3.916182544689956e-13 150 150
164 -50.00000000000057 150 150
165 -100.0000000000003 150 150
166 3.127325929872122 13.91921127994803 -75
167 3.899711648727293 10.53516833668783 -75
168 1.735534956470217 7.821376600903416 -75
169 -1.735534956470251 7.821376600903433 -75
170 -3.899711648727298 10.53516833668786 -75
171 -3.127325929872113 13.91921127994804 -75
172 -9.797174393178826e-16 15.4252520725131 -74.5
173 3.464101615137757 9.425252072513105 -74
174 3.46410161513775 13.42525207251311 -74
175 -3.464101615137757 13.42525207251309 -74
176 -3.464101615137749 9.425252072513089 -74
177 -1.267319582609616e-13 0 -75
178 -47.5 0 -24.99999999999989
179 -47.5 0 25.00000000000028
180 -1.270650251683492e-13 0 75
181 47.5 0 -24.99999999999989
182 47.5 0 25.00000000000028
183 47.5 29.99999999999997 75
184 47.5 60 -24.99999999999989
185 47.5 60 25.00000000000028
186 47.5 29.99999999999997 -75
187 -47.5 29.99999999999997 75
188 -1.270650251683492e-13 60 75
189 -47.5 29.99999999999997 -75
190 -47.5 60 -24.99999999999989
191 -47.5 60 25.00000000000028
192 -1.267319582609616e-13 60 -75
193 3.776080079967812 59 -2.066101276249293e-13
194 -12.15231889404497 59 42.11900988210139
195 -12.15231889404505 59 -42.11900988210149
196 20.02283277407373 59 46.08017107640477
197 20.02283277407375 59 -46.08017107640499
198 -1.650802103363313 15.06871915971607 -74.29851850468603
199 -0.6015466322476603 15.3797611000956 -74.31102855967075
200 -3.776080079967812 1 -2.084954147900908e-13
201 12.15231889404497 1 42.11900988210134
202 12.152318894045 1 -42.11900988210154
203 -20.02283277407377 1 46.08017107640478
204 -20.02283277407377 1 -46.08017107640498
205 46.5 30 -2.085538948744516e-13
206 46.50000000000001 29.99999999999999 45.22222222222209
207 46.49999999999999 29.99999999999999 -45.2222222222223
208 22.69017672091253 16.59647848790216 -74
209 -29.51344313097195 21.94296231058713 -74
210 22.83722068882944 35.43516486133879 -74
211 -27.38849367754831 39.16393429390542 -74
212 -9.929526400779226 27.37948499553501 -74
213 5.229679492706986 28.31486896862706 -74
214 15.00628105305399 19.22405980986235 -74
215 -15.47852879367112 12.36215857519138 -74
216 4.198729810778147 0 1.989519660128274e-13
217 -12.40327391363449 0 -42.66543783512971
218 -12.40327391363452 0 42.66543783512991
219 20.48933223440237 0 -46.70055488113562
220 20.48933223440236 0 46.70055488113582
221 47.5 30 1.872378260889747e-13
222 47.50000000000001 30 44.45238095238106
223 47.49999999999999 30 -44.45238095238089
224 -47.5 30 1.872378260889747e-13
225 -47.49999999999999 30 44.45238095238106
226 -47.50000000000001 30 -44.45238095238089
227 -30.20441540723224 21.57832353233932 -75
228 24.60561245776267 15.92676666563371 -75
229 19.46530017119628 35.45521994930023 -75
230 -25.03809046476005 39.0152234978636 -75
231 -15.10752831976495 25.57246996056491 -75
232 6.45270467614583 27.08296642713276 -75
233 13.4279741212878 19.43313100114354 -75
234 -14.33214342897556 12.18534256879695 -75
235 -8.018319343815479 17.386445962247 -75
236 -7.344375087847613 13.50654203691996 -75
237 -1.080413094804293 22.35911053955824 -75
238 -5.26877603302791 36.29846955436707 -75
239 4.198729810778147 60 1.989519660128274e-13
240 -12.40327391363449 60 -42.66543783512971
241 -12.40327391363452 60 42.66543783512991
242 20.48933223440237 60 -46.70055488113562
243 20.48933223440236 60 46.70055488113582
244 -46.5 30 -1.1842378929335e-15
245 -46.49999999999999 29.99999999999999 45.2222222222222
246 -46.50000000000001 29.99999999999999 -45.2222222222222
247 -3.776080079967819 59 2.131628207280301e-13
248 12.15231889404498 59 -42.11900988210132
249 12.152318894045 59 42.11900988210155
250 -20.02283277407377 59 -46.08017107640478
251 -20.02283277407378 59 46.08017107640499
252 -46.5 30 2.131628207280301e-13
253 -46.5 30 -45.22222222222209
254 -46.5 30 45.22222222222231
255 -3.776080079967819 1 2.131628207280301e-13
256 12.15231889404497 1 -42.11900988210135
257 12.15231889404501 1 42.11900988210155
258 -20.02283277407378 1 -46.08017107640478
259 -20.02283277407377 1 46.08017107640499
260 46.5 30 2.131628207280301e-13
261 46.5 30 -45.22222222222209
262 46.5 30 45.22222222222231
263 150 106.6987298107779 -24.99999999999964
264 150 -23.22955387814849 102.3898098553389
265 150 -104.7472057173742 -24.45328705021579
266 150 29.33628273532861 -105.1851937522285
267 150 70.40871904712978 104.7151376279606
268 150 -75.68811750067249 -108.3486063607967
269 150 -104.6075729569309 71.28773241457347
270 150 106.9346645067194 24.59134911936168
271 150 63.43678207087953 -0.06810848010587614
272 150 59.12670723578782 -57.80939070498946
273 150 20.0961894323338 -24.9999999999993
274 150 20.10274317388792 24.98864858664977
275 150 -22.3211142488268 -0.001891902224257909
276 150 -23.20508075688835 -49.99999999999925
277 150 -22.30132959553009 49.08075776576663
278 150 -68.22557381484896 24.12691627425237
279 150 22.22967306148252 74.61345079697114
280 150 107.6833057053034 -75.3674479857968
281 150 65.2044866410876 50.23142872783412
282 150 -23.72360537827214 -99.5403625390823
283 150 -108.9151974055891 -75.86493134473261
284 150 75.43561697818761 -108.4802265752374
285 150 108.9785405933234 73.45842885898989
286 150 -74.67856010497093 108.7687372754435
287 150 -115.5160704978309 24.1922723277222
288 150 -56.01588774757207 -23.4557811245144
289 150 -58.60851807008589 71.13079071707499
290 150 -65.38251575106136 -63.61049473655684
291 150 24.99999999999969 116.5063509461103
292 150 14.35732444081822 -66.61277992105346
293 150 113.397459621556 113.3974596215561
294 150 113.397459621556 -113.397459621556
295 150 -113.3974596215564 113.3974596215564
296 150 -113.3974596215564 -113.3974596215563
297 24.99999999999964 106.6987298107779 -150
298 -102.3898098553389 -23.22955387814852 -150
299 24.45328705021579 -104.7472057173742 -150
300 105.1851937522285 29.33628273532861 -150
301 -104.7151376279606 70.40871904712978 -150
302 108.3486063607967 -75.68811750067249 -150
303 -71.28773241457348 -104.6075729569309 -150
304 -24.59134911936168 106.9346645067194 -150
305 0.06810848010586786 63.43678207087953 -150
306 57.80939070498946 59.12670723578782 -150
307 24.9999999999993 20.0961894323338 -150
308 -24.98864858664979 20.10274317388794 -150
309 0.001891902224245475 -22.32111424882675 -150
310 49.99999999999923 -23.20508075688835 -150
311 -49.08075776576665 -22.30132959553009 -150
312 -24.12691627425238 -68.22557381484896 -150
313 -74.61345079697116 22.22967306148249 -150
314 75.3674479857968 107.6833057053034 -150
315 -50.23142872783414 65.20448664108761 -150
316 99.5403625390823 -23.72360537827217 -150
317 75.86493134473261 -108.9151974055891 -150
318 108.4802265752374 75.43561697818761 -150
319 -73.4584288589899 108.9785405933234 -150
320 -108.7687372754436 -74.67856010497093 -150
321 -24.19227232772221 -115.5160704978309 -150
322 23.4557811245144 -56.01588774757207 -150
323 -71.13079071707499 -58.60851807008589 -150
324 63.61049473655684 -65.38251575106136 -150
325 -116.5063509461103 24.99999999999969 -150
326 66.61277992105346 14.35732444081825 -150
327 -113.3974596215561 113.397459621556 -150
328 113.397459621556 113.397459621556 -150
329 -113.3974596215564 -113.3974596215564 -150
330 113.3974596215563 -113.3974596215564 -150
331 -150 23.22955387814849 -102.3898098553379
332 -150 -29.33628273532921 105.1851937522288
333 -150 104.7472057173742 24.45328705021677
334 -150 -106.9346645067193 -24.59134911936079
335 -150 -70.40871904713003 -104.7151376279602
336 -150 104.6075729569309 -71.28773241457262
337 -150 -107.6613977472086 74.78813153595661
338 -150 75.68811750067191 108.3486063607967
339 -150 -106.8984969161734 25.03279706943299
340 -150 -63.47007658844547 0.07357465834584076
341 -150 -64.8533628322314 -50.29683446752341
342 -150 -20.35094279526135 -25.03720996819561
343 -150 -19.31340992762296 23.55574323438684
344 -150 22.41021089604973 -0.2469111223005775
345 -150 23.20508075688775 50.00000000000135
346 -150 22.27481243317206 -49.1303185001106
347 -150 68.23013500179266 -24.14866290390577
348 -150 -22.51810972721708 -74.67927689420615
349 -150 23.72360537827142 99.54036253908298
350 -150 -59.18570010074248 57.57826756470647
351 -150 -108.9367401398881 -73.46621525657153
352 -150 74.67856010497074 -108.768737275443
353 -150 108.9151974055888 75.86493134473318
354 -150 -75.44003184805229 108.3837456716514
355 -150 56.03461931440496 23.40167119367964
356 -150 115.5169827352196 -24.1966216536522
357 -150 58.60412687500298 -71.14505218987399
358 -150 65.38563767886653 63.60147641475176
359 -150 -25.00000000000045 -116.5063509461092
360 -150 -15.07214207425051 66.29809471616767
361 -150 113.397459621556 113.3974596215561
362 -150 113.3974596215561 -113.3974596215561
363 -150 -113.3974596215564 113.3974596215564
364 -150 -113.3974596215564 -113.3974596215563
365 24.99999999999964 106.6987298107779 150
366 -102.3898098553389 -23.22955387814847 150
367 24.45328705021578 -104.7472057173742 150
368 105.1851937522285 29.33628273532861 150
369 -104.7151376279606 70.40871904712978 150
370 108.3486063607967 -75.68811750067249 150
371 -71.28773241457347 -104.6075729569308 150
372 -24.59134911936167 106.9346645067194 150
373 0.06810848010588511 63.43678207087956 150
374 57.80939070498945 59.12670723578782 150
375 24.99999999999929 20.0961894323338 150
376 -24.98864858664978 20.10274317388797 150
377 0.001891902224227785 -22.32111424882675 150
378 49.99999999999921 -23.20508075688835 150
379 -49.08075776576668 -22.30132959553009 150
380 -24.12691627425242 -68.22557381484893 150
381 -74.61345079697116 22.22967306148252 150
382 75.3674479857968 107.6833057053034 150
383 99.54036253908228 -23.72360537827214 150
384 -50.23142872783411 65.20448664108764 150
385 75.86493134473261 -108.9151974055891 150
386 108.4802265752374 75.43561697818761 150
387 -73.4584288589899 108.9785405933234 150
388 -108.7687372754435 -74.67856010497087 150
389 -24.19227232772221 -115.5160704978308 150
390 23.45578112451438 -56.01588774757207 150
391 -71.13079071707499 -58.60851807008581 150
392 63.61049473655683 -65.38251575106133 150
393 -116.5063509461103 24.99999999999969 150
394 66.61277992105344 14.35732444081822 150
395 -113.3974596215561 113.397459621556 150
396 113.397459621556 113.397459621556 150
397 -113.3974596215564 -113.3974596215564 150
398 113.3974596215563 -113.3974596215564 150
399 105.2595347681749 150 -24.71190771788667
400 -106.9346645067194 150 -24.59134911936079
401 23.22955387814807 150 102.3898098553388
402 23.92289983297535 150 -99.76628790523063
403 -70.40871904713021 150 104.7151376279607
404 104.6075729569308 150 71.28773241457344
405 -76.65154287159002 150 -107.1073806914168
406 -106.973986956043 150 24.65945759946813
407 -63.48265826175706 150 0.01135141335165931
408 -59.33593359043968 150 -57.46175680579105
409 -20.09618943233389 150 -24.99999999999934
410 -20.1103892057009 150 25.001891902226
411 22.31983991019123 150 0.0003153170384256517
412 23.20508075688827 150 -49.99999999999926
413 22.2998428671219 150 49.08333285490639
414 67.76089622635024 150 24.3631535257955
415 -22.2311951881863 150 74.61608719775714
416 -29.52278645055095 150 -105.1055866864342
417 -65.22021444087399 150 50.25867007615516
418 108.2215840575939 150 -76.60435216060857
419 -109.0230966378249 150 -74.60397304249108
420 74.67856010497053 150 108.7687372754435
421 75.17102812654163 150 -109.106590914055
422 -108.985094194408 150 73.46978002904081
423 115.5256007902912 150 24.18779564449665
424 56.06492341872575 150 -23.52025833965913
425 58.51528520670431 150 71.17855318521151
426 65.30750849348331 150 -63.95156617290653
427 -25.00000000000048 150 116.5063509461102
428 -14.36755120129169 150 -66.60229910062237
429 113.3974596215561 150 -113.3974596215561
430 -113.3974596215564 150 113.3974596215564
431 -113.3974596215565 150 -113.3974596215564
432 113.3974596215563 150 113.3974596215564
433 105.1851937522285 -150 -29.33628273532862
434 -99.74559179545803 -150 23.94727492930338
435 -24.59134911936166 -150 -106.9346645067194
436 24.45328705021579 -150 104.7472057173742
437 108.3486063607967 -150 75.68811750067253
438 74.78813153595603 -150 -107.6613977472083
439 -71.28773241457345 -150 104.6075729569309
440 -107.107380691417 -150 -76.65154287158967
441 25.03279706943217 -150 -106.8984969161733
442 0.07357465834470034 -150 -63.47007658844539
443 -57.4528677707925 -150 -59.33413620853784
444 -25.00000000000077 -150 -20.09618943233396
445 23.56194489575148 -150 -19.27095103380147
446 -0.2396758507088445 -150 22.45974627217452
447 49.9999999999993 -150 23.20508075688838
448 -47.23189040286157 -150 23.28248862455353
449 -24.00976615690745 -150 68.30719123849117
450 57.57915351632941 -150 -59.179634544482
451 -105.1006558289725 -150 -29.51842437084562
452 99.54036253908234 -150 23.72360537827216
453 75.86493134473263 -150 108.9151974055891
454 108.3838511420825 -150 -75.43930975802084
455 -74.60291482403929 -150 -109.0228826637889
456 -108.2876091215007 -150 73.67866021161828
457 -24.16884230425322 -150 115.5323939825593
458 23.43089759739679 -150 56.05993763697006
459 -70.11251797826024 -150 58.76463759217945
460 63.60634748203726 -150 65.3898573992944
461 66.29809471616673 -150 -15.07214207425015
462 -66.45638981285882 -150 -14.36193154148312
463 -113.3974596215561 -150 -113.397459621556
464 113.3974596215561 -150 -113.3974596215561
465 -113.3974596215564 -150 113.3974596215564
466 113.3974596215563 -150 113.3974596215564
467 -1.650802103363313 15.06871915971607 -74.29851850468603
468 -0.6015466322476603 15.3797611000956 -74.31102855967075
469 4.198729810778147 0 1.989519660128274e-13
470 -12.40327391363449 0 -42.66543783512971
471 -12.40327391363452 0 42.66543783512991
472 20.48933223440237 0 -46.70055488113562
473 20.48933223440237 0 46.70055488113582
474 47.5 30 1.872378260889747e-13
475 47.50000000000001 30 44.45238095238106
476 47.49999999999999 30 -44.45238095238089
477 -47.5 30 1.872378260889747e-13
478 -47.49999999999999 30 44.45238095238106
479 -47.50000000000001 30 -44.45238095238089
480 -30.20441540723224 21.57832353233932 -75
481 24.60561245776267 15.92676666563371 -75
482 19.46530017119628 35.45521994930023 -75
483 -25.03809046476005 39.0152234978636 -75
484 -15.10752831976495 25.57246996056491 -75
485 6.45270467614583 27.08296642713276 -75
486 13.4279741212878 19.43313100114354 -75
487 -14.33214342897556 12.18534256879695 -75
488 -8.018319343815479 17.386445962247 -75
489 -7.344375087847613 13.50654203691996 -75
490 -1.080413094804293 22.35911053955824 -75
491 -5.26877603302791 36.29846955436707 -75
492 -4.198729810778147 60 1.989519660128274e-13
493 12.40327391363443 60 -42.66543783512972
494 12.40327391363446 60 42.66543783512992
495 -20.48933223440246 60 -46.70055488113562
496 -20.48933223440246 60 46.70055488113583
497 8.620450983305289e-16 11.4252520725131 -74
498 -5.126491362898464 12.59534027261216 -115.4674472735362
499 45.36264981973234 -74.62718777970936 50.00000000000014
500 -23.75000000000006 -74.72949857316138 -65.56412763281773
501 74.14099808911527 -72.98258231600512 -22.20201362967696
502 -74.70249455059619 -73.29555840131293 73.27501087219996
503 -23.88732945444917 -76.16712984050997 14.21531223354417
504 -5.44353589835708 15.83520467705848 -95.25301543036986
505 -83.09415733609966 -81.23028908476519 -25.88063400256991
506 42.83728076855807 -68.6075677887559 -83.92125380457401
507 -88.57442674724757 -51.75770489414856 -85.73497020399971
508 -98.05328494389165 44.99999999999999 -59.72619047619047
509 88.76929253558097 -47.91149728785027 90.51602656865813
510 -33.97227706507494 32.17849873192191 -108.689217195859
511 96.74779945700904 14.99999999999999 -59.72619047619042
512 -93.57630283426772 94.29656923083499 49.65806819616598
513 -93.34840894906228 93.34023105300625 -95.34346948955969
514 -9.956592193046241 -86.63810193456266 86.67669340311025
515 94.43312188839828 94.13606105845 93.69359442736373
516 -99.21315562881722 31.73293701133206 22.22619047619062
517 93.66350476012619 -41.80040774860251 28.1445363099206
518 -92.47036284434478 -42.8203147814708 22.08960603886323
519 94.0552301450912 93.74803183462588 -94.08070635540467
520 16.62411794150091 -55.96578382799612 -25.25371434585779
521 99.19250374961717 7.791117865481219 -3.849341438577341
522 -23.75000000000006 -35.00350898959068 -105.404582424741
523 -96.21039821915231 92.46050425420241 -25.50994320051954
524 94.93036465110737 -43.65040969702431 -69.62028714528921
525 92.79145297786226 96.56676031708704 34.74595687762069
526 -89.62213651601633 15 -101.0216962327672
527 96.48276434805754 -96.48276434805724 -96.38356243661921
528 10.06639894905078 47.99229035864554 -110.5330641711695
529 89.29261801533231 42.92991262558959 -102.6570345071034
530 -101.5809851550987 10.37679985791943 72.96930282527556
531 -98.64882998214433 -10.64364976074772 -47.64844814873558
532 101.3078739245661 41.37835093211943 39.88857645491436
533 99.14607600560703 7.603262611498128 97.72445558496022
534 34.36630599152353 -48.47713627779989 96.85563777727964
535 58.57377631195934 -98.36229356128996 98.36229356128992
536 -72.51387702572559 -100.6283740143579 25.02663783710613
537 33.34409362952188 -100.4127639037044 2.767304706773736
538 23.74999999999994 -25.11851786609285 -108.3453044362154
539 -99.26047151690113 61.34421680069274 93.16302967236339
540 96.01892589231676 -98.55397783920162 56.22941734152475
541 15.09136861606462 27.95485782309404 -97.30201778229042
542 -76.34960648577618 -31.72068649772307 105.2445985228028
543 -30.69180378689421 -47.24400697083935 58.02932370346036
544 100.0100669660591 80.58361807363582 -38.0276128529656
545 23.74999999999994 102.7191156590135 -65.56412763281786
546 0.07329046853148037 96.35970883320714 -108.4876022371269
547 -33.06624327025946 104.7756412216633 1.953992523340276e-13
548 -95.06608496114777 -101.7575959658716 -101.7575959658718
549 -45.57023923559965 104.2683047906762 102.3921101266434
$EndNodes
$Elements
2651
1 2 2 7 1 47 1 194
2 2 2 7 1 1 48 194
3 2 2 7 1 2 47 196
4 2 2 7 1 52 2 196
5 2 2 7 1 49 3 195
6 2 2 7 1 3 50 195
7 2 2 7 1 50 4 197
8 2 2 7 1 4 51 197
9 2 2 7 1 47 194 196
10 2 2 7 1 48 49 193
11 2 2 7 1 48 193 194
12 2 2 7 1 193 49 195
13 2 2 7 1 195 50 197
14 2 2 7 1 51 52 193
15 2 2 7 1 51 193 197
16 2 2 7 1 193 52 196
17 2 2 7 1 194 193 196
18 2 2 7 1 193 195 197
19 2 2 7 2 59 5 53
20 2 2 7 2 58 5 198
21 2 2 7 2 5 59 199
22 2 2 7 2 198 5 199
23 2 2 7 2 6 59 53
24 2 2 7 2 6 53 61
25 2 2 7 2 59 6 199
26 2 2 7 2 6 62 198
27 2 2 7 2 6 198 199
28 2 2 7 2 55 56 7
29 2 2 7 2 60 55 7
30 2 2 7 2 7 56 63
31 2 2 7 2 53 54 61
32 2 2 7 2 54 55 60
33 2 2 7 2 61 54 60
34 2 2 7 2 56 57 63
35 2 2 7 2 57 58 62
36 2 2 7 2 63 57 62
37 2 2 7 2 62 58 198
38 2 2 7 3 8 204 64
39 2 2 7 3 65 204 8
40 2 2 7 3 64 202 9
41 2 2 7 3 9 202 68
42 2 2 7 3 10 203 66
43 2 2 7 3 67 203 10
44 2 2 7 3 11 201 67
45 2 2 7 3 69 201 11
46 2 2 7 3 64 204 202
47 2 2 7 3 66 200 65
48 2 2 7 3 200 204 65
49 2 2 7 3 66 203 200
50 2 2 7 3 201 203 67
51 2 2 7 3 68 200 69
52 2 2 7 3 68 202 200
53 2 2 7 3 200 201 69
54 2 2 7 3 200 203 201
55 2 2 7 3 202 204 200
56 2 2 7 4 52 206 2
57 2 2 7 4 2 206 71
58 2 2 7 4 4 207 51
59 2 2 7 4 70 207 4
60 2 2 7 4 68 207 9
61 2 2 7 4 9 207 70
62 2 2 7 4 11 206 69
63 2 2 7 4 71 206 11
64 2 2 7 4 51 205 52
65 2 2 7 4 51 207 205
66 2 2 7 4 205 206 52
67 2 2 7 4 69 205 68
68 2 2 7 4 205 207 68
69 2 2 7 4 69 206 205
70 2 2 7 5 47 72 1
71 2 2 7 5 71 47 2
72 2 2 7 5 72 67 10
73 2 2 7 5 67 71 11
74 2 2 7 5 47 71 67
75 2 2 7 5 72 47 67
76 2 2 7 6 3 211 50
77 2 2 7 6 73 211 3
78 2 2 7 6 50 210 4
79 2 2 7 6 4 210 70
80 2 2 7 6 61 213 6
81 2 2 7 6 6 212 62
82 2 2 7 6 6 213 212
83 2 2 7 6 7 64 60
84 2 2 7 6 63 64 7
85 2 2 7 6 64 215 8
86 2 2 7 6 8 209 73
87 2 2 7 6 8 215 209
88 2 2 7 6 9 208 64
89 2 2 7 6 70 208 9
90 2 2 7 6 50 213 210
91 2 2 7 6 211 212 50
92 2 2 7 6 212 213 50
93 2 2 7 6 60 214 61
94 2 2 7 6 64 208 60
95 2 2 7 6 208 214 60
96 2 2 7 6 61 214 213
97 2 2 7 6 62 215 63
98 2 2 7 6 212 215 62
99 2 2 7 6 63 215 64
100 2 2 7 6 70 210 208
101 2 2 7 6 209 211 73
102 2 2 7 6 210 214 208
103 2 2 7 6 209 212 211
104 2 2 7 6 209 215 212
105 2 2 7 6 213 214 210
106 2 2 7 7 12 74 217
107 2 2 7 7 78 12 217
108 2 2 7 7 74 13 219
109 2 2 7 7 13 75 219
110 2 2 7 7 76 14 220
111 2 2 7 7 14 77 220
112 2 2 7 7 77 15 218
113 2 2 7 7 15 79 218
114 2 2 7 7 217 74 219
115 2 2 7 7 75 76 216
116 2 2 7 7 75 216 219
117 2 2 7 7 216 76 220
118 2 2 7 7 77 218 220
119 2 2 7 7 79 78 216
120 2 2 7 7 216 78 217
121 2 2 7 7 79 216 218
122 2 2 7 7 216 217 219
123 2 2 7 7 218 216 220
124 2 2 7 8 13 223 75
125 2 2 7 8 80 223 13
126 2 2 7 8 76 222 14
127 2 2 7 8 14 222 83
128 2 2 7 8 16 223 80
129 2 2 7 8 81 223 16
130 2 2 7 8 17 222 82
131 2 2 7 8 83 222 17
132 2 2 7 8 75 221 76
133 2 2 7 8 75 223 221
134 2 2 7 8 221 222 76
135 2 2 7 8 82 221 81
136 2 2 7 8 221 223 81
137 2 2 7 8 82 222 221
138 2 2 7 9 77 14 83
139 2 2 7 9 77 85 15
140 2 2 7 9 17 84 83
141 2 2 7 9 85 84 18
142 2 2 7 9 84 77 83
143 2 2 7 9 77 84 85
144 2 2 7 10 12 78 226
145 2 2 7 10 88 12 226
146 2 2 7 10 79 15 225
147 2 2 7 10 15 85 225
148 2 2 7 10 85 18 225
149 2 2 7 10 18 87 225
150 2 2 7 10 86 19 226
151 2 2 7 10 19 88 226
152 2 2 7 10 78 79 224
153 2 2 7 10 78 224 226
154 2 2 7 10 224 79 225
155 2 2 7 10 87 86 224
156 2 2 7 10 224 86 226
157 2 2 7 10 87 224 225
158 2 2 7 11 5 237 53
159 2 2 7 11 58 237 5
160 2 2 7 11 12 234 74
161 2 2 7 11 88 227 12
162 2 2 7 11 227 234 12
163 2 2 7 11 74 228 13
164 2 2 7 11 13 228 80
165 2 2 7 11 80 229 16
166 2 2 7 11 16 229 89
167 2 2 7 11 19 230 88
168 2 2 7 11 89 230 19
169 2 2 7 11 53 233 54
170 2 2 7 11 232 233 53
171 2 2 7 11 53 237 232
172 2 2 7 11 55 54 74
173 2 2 7 11 54 228 74
174 2 2 7 11 54 233 228
175 2 2 7 11 74 56 55
176 2 2 7 11 56 234 57
177 2 2 7 11 74 234 56
178 2 2 7 11 57 236 58
179 2 2 7 11 234 236 57
180 2 2 7 11 58 236 235
181 2 2 7 11 235 237 58
182 2 2 7 11 228 229 80
183 2 2 7 11 88 230 227
184 2 2 7 11 229 238 89
185 2 2 7 11 89 238 230
186 2 2 7 11 230 231 227
187 2 2 7 11 231 234 227
188 2 2 7 11 228 233 229
189 2 2 7 11 229 233 232
190 2 2 7 11 232 238 229
191 2 2 7 11 230 238 231
192 2 2 7 11 231 235 234
193 2 2 7 11 231 237 235
194 2 2 7 11 231 238 237
195 2 2 7 11 237 238 232
196 2 2 7 11 235 236 234
197 2 2 7 12 16 242 81
198 2 2 7 12 89 242 16
199 2 2 7 12 82 243 17
200 2 2 7 12 17 243 84
201 2 2 7 12 84 241 18
202 2 2 7 12 18 241 87
203 2 2 7 12 86 240 19
204 2 2 7 12 19 240 89
205 2 2 7 12 81 239 82
206 2 2 7 12 81 242 239
207 2 2 7 12 239 243 82
208 2 2 7 12 84 243 241
209 2 2 7 12 87 239 86
210 2 2 7 12 239 240 86
211 2 2 7 12 87 241 239
212 2 2 7 12 240 242 89
213 2 2 7 12 239 242 240
214 2 2 7 12 241 243 239
215 2 2 7 13 48 1 245
216 2 2 7 13 1 72 245
217 2 2 7 13 3 49 246
218 2 2 7 13 73 3 246
219 2 2 7 13 65 8 246
220 2 2 7 13 8 73 246
221 2 2 7 13 10 66 245
222 2 2 7 13 72 10 245
223 2 2 7 13 49 48 244
224 2 2 7 13 244 48 245
225 2 2 7 13 49 244 246
226 2 2 7 13 66 65 244
227 2 2 7 13 244 65 246
228 2 2 7 13 66 244 245
229 2 2 7 14 20 250 90
230 2 2 7 14 92 250 20
231 2 2 7 14 90 248 21
232 2 2 7 14 21 248 95
233 2 2 7 14 22 251 91
234 2 2 7 14 93 251 22
235 2 2 7 14 23 249 93
236 2 2 7 14 94 249 23
237 2 2 7 14 90 250 248
238 2 2 7 14 91 247 92
239 2 2 7 14 91 251 247
240 2 2 7 14 247 250 92
241 2 2 7 14 249 251 93
242 2 2 7 14 95 247 94
243 2 2 7 14 247 249 94
244 2 2 7 14 95 248 247
245 2 2 7 14 248 250 247
246 2 2 7 14 247 251 249
247 2 2 7 15 20 253 92
248 2 2 7 15 96 253 20
249 2 2 7 15 91 254 22
250 2 2 7 15 22 254 99
251 2 2 7 15 24 253 96
252 2 2 7 15 98 253 24
253 2 2 7 15 25 254 97
254 2 2 7 15 99 254 25
255 2 2 7 15 92 252 91
256 2 2 7 15 252 254 91
257 2 2 7 15 92 253 252
258 2 2 7 15 97 252 98
259 2 2 7 15 97 254 252
260 2 2 7 15 252 253 98
261 2 2 7 16 98 24 258
262 2 2 7 16 24 100 258
263 2 2 7 16 25 97 259
264 2 2 7 16 103 25 259
265 2 2 7 16 100 26 256
266 2 2 7 16 26 102 256
267 2 2 7 16 101 27 257
268 2 2 7 16 27 103 257
269 2 2 7 16 97 98 255
270 2 2 7 16 97 255 259
271 2 2 7 16 255 98 258
272 2 2 7 16 100 256 258
273 2 2 7 16 102 101 255
274 2 2 7 16 255 101 257
275 2 2 7 16 102 255 256
276 2 2 7 16 257 103 259
277 2 2 7 16 256 255 258
278 2 2 7 16 255 257 259
279 2 2 7 17 21 95 261
280 2 2 7 17 104 21 261
281 2 2 7 17 94 23 262
282 2 2 7 17 23 105 262
283 2 2 7 17 102 26 261
284 2 2 7 17 26 104 261
285 2 2 7 17 27 101 262
286 2 2 7 17 105 27 262
287 2 2 7 17 95 94 260
288 2 2 7 17 260 94 262
289 2 2 7 17 95 260 261
290 2 2 7 17 101 102 260
291 2 2 7 17 101 260 262
292 2 2 7 17 260 102 261
293 2 2 7 18 93 22 99
294 2 2 7 18 105 23 93
295 2 2 7 18 99 25 103
296 2 2 7 18 105 103 27
297 2 2 7 18 103 93 99
298 2 2 7 18 105 93 103
299 2 2 7 19 90 96 20
300 2 2 7 19 90 21 104
301 2 2 7 19 96 100 24
302 2 2 7 19 100 104 26
303 2 2 7 19 90 100 96
304 2 2 7 19 100 90 104
305 2 2 4 20 28 296 106
306 2 2 4 20 115 296 28
307 2 2 4 20 110 295 29
308 2 2 4 20 29 295 125
309 2 2 4 20 30 294 111
310 2 2 4 20 116 294 30
311 2 2 4 20 31 293 120
312 2 2 4 20 121 293 31
313 2 2 4 20 106 283 107
314 2 2 4 20 106 296 283
315 2 2 4 20 107 265 108
316 2 2 4 20 107 283 265
317 2 2 4 20 108 287 109
318 2 2 4 20 265 287 108
319 2 2 4 20 109 269 110
320 2 2 4 20 109 287 269
321 2 2 4 20 269 295 110
322 2 2 4 20 111 284 112
323 2 2 4 20 111 294 284
324 2 2 4 20 112 266 113
325 2 2 4 20 112 284 266
326 2 2 4 20 113 282 114
327 2 2 4 20 266 282 113
328 2 2 4 20 114 268 115
329 2 2 4 20 114 282 268
330 2 2 4 20 268 296 115
331 2 2 4 20 117 280 116
332 2 2 4 20 280 294 116
333 2 2 4 20 118 263 117
334 2 2 4 20 263 280 117
335 2 2 4 20 119 270 118
336 2 2 4 20 118 270 263
337 2 2 4 20 120 285 119
338 2 2 4 20 119 285 270
339 2 2 4 20 120 293 285
340 2 2 4 20 122 267 121
341 2 2 4 20 267 293 121
342 2 2 4 20 123 291 122
343 2 2 4 20 122 291 267
344 2 2 4 20 124 264 123
345 2 2 4 20 264 291 123
346 2 2 4 20 125 286 124
347 2 2 4 20 124 286 264
348 2 2 4 20 125 295 286
349 2 2 4 20 270 271 263
350 2 2 4 20 271 272 263
351 2 2 4 20 272 280 263
352 2 2 4 20 277 279 264
353 2 2 4 20 264 289 277
354 2 2 4 20 279 291 264
355 2 2 4 20 286 289 264
356 2 2 4 20 278 287 265
357 2 2 4 20 265 288 278
358 2 2 4 20 283 290 265
359 2 2 4 20 265 290 288
360 2 2 4 20 266 284 272
361 2 2 4 20 272 292 266
362 2 2 4 20 266 292 282
363 2 2 4 20 279 281 267
364 2 2 4 20 267 291 279
365 2 2 4 20 281 285 267
366 2 2 4 20 285 293 267
367 2 2 4 20 282 290 268
368 2 2 4 20 268 290 283
369 2 2 4 20 283 296 268
370 2 2 4 20 269 287 278
371 2 2 4 20 278 289 269
372 2 2 4 20 269 289 286
373 2 2 4 20 286 295 269
374 2 2 4 20 270 281 271
375 2 2 4 20 270 285 281
376 2 2 4 20 271 273 272
377 2 2 4 20 271 274 273
378 2 2 4 20 271 281 274
379 2 2 4 20 273 292 272
380 2 2 4 20 272 284 280
381 2 2 4 20 274 275 273
382 2 2 4 20 275 276 273
383 2 2 4 20 276 292 273
384 2 2 4 20 274 277 275
385 2 2 4 20 274 279 277
386 2 2 4 20 274 281 279
387 2 2 4 20 275 288 276
388 2 2 4 20 277 278 275
389 2 2 4 20 278 288 275
390 2 2 4 20 276 290 282
391 2 2 4 20 282 292 276
392 2 2 4 20 288 290 276
393 2 2 4 20 277 289 278
394 2 2 4 20 284 294 280
395 2 2 6 21 115 28 330
396 2 2 6 21 28 126 330
397 2 2 6 21 30 111 328
398 2 2 6 21 136 30 328
399 2 2 6 21 130 32 329
400 2 2 6 21 32 135 329
401 2 2 6 21 131 33 327
402 2 2 6 21 33 140 327
403 2 2 6 21 111 112 318
404 2 2 6 21 111 318 328
405 2 2 6 21 112 113 300
406 2 2 6 21 112 300 318
407 2 2 6 21 113 114 316
408 2 2 6 21 300 113 316
409 2 2 6 21 114 115 302
410 2 2 6 21 114 302 316
411 2 2 6 21 302 115 330
412 2 2 6 21 126 127 317
413 2 2 6 21 126 317 330
414 2 2 6 21 127 128 299
415 2 2 6 21 127 299 317
416 2 2 6 21 128 129 321
417 2 2 6 21 299 128 321
418 2 2 6 21 129 130 303
419 2 2 6 21 129 303 321
420 2 2 6 21 303 130 329
421 2 2 6 21 132 131 301
422 2 2 6 21 301 131 327
423 2 2 6 21 133 132 325
424 2 2 6 21 132 301 325
425 2 2 6 21 134 133 298
426 2 2 6 21 298 133 325
427 2 2 6 21 135 134 320
428 2 2 6 21 134 298 320
429 2 2 6 21 135 320 329
430 2 2 6 21 137 136 314
431 2 2 6 21 314 136 328
432 2 2 6 21 138 137 297
433 2 2 6 21 297 137 314
434 2 2 6 21 139 138 304
435 2 2 6 21 138 297 304
436 2 2 6 21 140 139 319
437 2 2 6 21 139 304 319
438 2 2 6 21 140 319 327
439 2 2 6 21 304 297 305
440 2 2 6 21 305 297 306
441 2 2 6 21 306 297 314
442 2 2 6 21 311 298 313
443 2 2 6 21 298 311 323
444 2 2 6 21 313 298 325
445 2 2 6 21 320 298 323
446 2 2 6 21 312 299 321
447 2 2 6 21 299 312 322
448 2 2 6 21 317 299 324
449 2 2 6 21 299 322 324
450 2 2 6 21 300 306 318
451 2 2 6 21 306 300 326
452 2 2 6 21 300 316 326
453 2 2 6 21 313 301 315
454 2 2 6 21 301 313 325
455 2 2 6 21 315 301 319
456 2 2 6 21 319 301 327
457 2 2 6 21 316 302 324
458 2 2 6 21 302 317 324
459 2 2 6 21 317 302 330
460 2 2 6 21 303 312 321
461 2 2 6 21 312 303 323
462 2 2 6 21 303 320 323
463 2 2 6 21 320 303 329
464 2 2 6 21 304 305 315
465 2 2 6 21 304 315 319
466 2 2 6 21 305 306 307
467 2 2 6 21 305 307 308
468 2 2 6 21 305 308 315
469 2 2 6 21 307 306 326
470 2 2 6 21 306 314 318
471 2 2 6 21 308 307 309
472 2 2 6 21 309 307 310
473 2 2 6 21 310 307 326
474 2 2 6 21 308 309 311
475 2 2 6 21 308 311 313
476 2 2 6 21 308 313 315
477 2 2 6 21 309 310 322
478 2 2 6 21 311 309 312
479 2 2 6 21 312 309 322
480 2 2 6 21 310 316 324
481 2 2 6 21 316 310 326
482 2 2 6 21 322 310 324
483 2 2 6 21 311 312 323
484 2 2 6 21 318 314 328
485 2 2 5 22 135 32 364
486 2 2 5 22 32 141 364
487 2 2 5 22 33 131 362
488 2 2 5 22 151 33 362
489 2 2 5 22 145 34 363
490 2 2 5 22 34 150 363
491 2 2 5 22 146 35 361
492 2 2 5 22 35 155 361
493 2 2 5 22 131 132 352
494 2 2 5 22 131 352 362
495 2 2 5 22 132 133 331
496 2 2 5 22 132 331 352
497 2 2 5 22 133 134 359
498 2 2 5 22 331 133 359
499 2 2 5 22 134 135 335
500 2 2 5 22 134 335 359
501 2 2 5 22 335 135 364
502 2 2 5 22 141 142 351
503 2 2 5 22 141 351 364
504 2 2 5 22 142 143 334
505 2 2 5 22 142 334 351
506 2 2 5 22 143 144 339
507 2 2 5 22 334 143 339
508 2 2 5 22 144 145 337
509 2 2 5 22 144 337 339
510 2 2 5 22 337 145 363
511 2 2 5 22 147 146 338
512 2 2 5 22 338 146 361
513 2 2 5 22 148 147 349
514 2 2 5 22 147 338 349
515 2 2 5 22 149 148 332
516 2 2 5 22 332 148 349
517 2 2 5 22 150 149 354
518 2 2 5 22 149 332 354
519 2 2 5 22 150 354 363
520 2 2 5 22 152 151 336
521 2 2 5 22 336 151 362
522 2 2 5 22 153 152 356
523 2 2 5 22 152 336 356
524 2 2 5 22 154 153 333
525 2 2 5 22 333 153 356
526 2 2 5 22 155 154 353
527 2 2 5 22 154 333 353
528 2 2 5 22 155 353 361
529 2 2 5 22 346 331 348
530 2 2 5 22 331 346 357
531 2 2 5 22 348 331 359
532 2 2 5 22 352 331 357
533 2 2 5 22 332 349 360
534 2 2 5 22 332 350 354
535 2 2 5 22 350 332 360
536 2 2 5 22 333 347 355
537 2 2 5 22 347 333 356
538 2 2 5 22 353 333 358
539 2 2 5 22 333 355 358
540 2 2 5 22 334 339 340
541 2 2 5 22 334 340 341
542 2 2 5 22 334 341 351
543 2 2 5 22 335 341 348
544 2 2 5 22 341 335 351
545 2 2 5 22 335 348 359
546 2 2 5 22 351 335 364
547 2 2 5 22 336 347 356
548 2 2 5 22 347 336 357
549 2 2 5 22 336 352 357
550 2 2 5 22 352 336 362
551 2 2 5 22 339 337 350
552 2 2 5 22 350 337 354
553 2 2 5 22 354 337 363
554 2 2 5 22 349 338 358
555 2 2 5 22 338 353 358
556 2 2 5 22 353 338 361
557 2 2 5 22 340 339 350
558 2 2 5 22 341 340 342
559 2 2 5 22 342 340 343
560 2 2 5 22 343 340 350
561 2 2 5 22 341 342 348
562 2 2 5 22 342 343 344
563 2 2 5 22 342 344 346
564 2 2 5 22 342 346 348
565 2 2 5 22 344 343 345
566 2 2 5 22 345 343 360
567 2 2 5 22 343 350 360
568 2 2 5 22 344 345 355
569 2 2 5 22 346 344 347
570 2 2 5 22 347 344 355
571 2 2 5 22 345 349 358
572 2 2 5 22 349 345 360
573 2 2 5 22 355 345 358
574 2 2 5 22 346 347 357
575 2 2 6 23 125 398 29
576 2 2 6 23 29 398 156
577 2 2 6 23 31 396 121
578 2 2 6 23 161 396 31
579 2 2 6 23 34 397 150
580 2 2 6 23 160 397 34
581 2 2 6 23 146 395 35
582 2 2 6 23 35 395 165
583 2 2 6 23 121 386 122
584 2 2 6 23 121 396 386
585 2 2 6 23 122 368 123
586 2 2 6 23 122 386 368
587 2 2 6 23 123 383 124
588 2 2 6 23 368 383 123
589 2 2 6 23 124 370 125
590 2 2 6 23 124 383 370
591 2 2 6 23 370 398 125
592 2 2 6 23 147 369 146
593 2 2 6 23 369 395 146
594 2 2 6 23 148 393 147
595 2 2 6 23 147 393 369
596 2 2 6 23 149 366 148
597 2 2 6 23 366 393 148
598 2 2 6 23 150 388 149
599 2 2 6 23 149 388 366
600 2 2 6 23 150 397 388
601 2 2 6 23 156 385 157
602 2 2 6 23 156 398 385
603 2 2 6 23 157 367 158
604 2 2 6 23 157 385 367
605 2 2 6 23 158 389 159
606 2 2 6 23 367 389 158
607 2 2 6 23 159 371 160
608 2 2 6 23 159 389 371
609 2 2 6 23 371 397 160
610 2 2 6 23 162 382 161
611 2 2 6 23 382 396 161
612 2 2 6 23 163 365 162
613 2 2 6 23 365 382 162
614 2 2 6 23 164 372 163
615 2 2 6 23 163 372 365
616 2 2 6 23 165 387 164
617 2 2 6 23 164 387 372
618 2 2 6 23 165 395 387
619 2 2 6 23 372 373 365
620 2 2 6 23 373 374 365
621 2 2 6 23 374 382 365
622 2 2 6 23 379 381 366
623 2 2 6 23 366 391 379
624 2 2 6 23 381 393 366
625 2 2 6 23 388 391 366
626 2 2 6 23 380 389 367
627 2 2 6 23 367 390 380
628 2 2 6 23 385 392 367
629 2 2 6 23 367 392 390
630 2 2 6 23 368 386 374
631 2 2 6 23 374 394 368
632 2 2 6 23 368 394 383
633 2 2 6 23 381 384 369
634 2 2 6 23 369 393 381
635 2 2 6 23 384 387 369
636 2 2 6 23 387 395 369
637 2 2 6 23 383 392 370
638 2 2 6 23 370 392 385
639 2 2 6 23 385 398 370
640 2 2 6 23 371 389 380
641 2 2 6 23 380 391 371
642 2 2 6 23 371 391 388
643 2 2 6 23 388 397 371
644 2 2 6 23 372 384 373
645 2 2 6 23 372 387 384
646 2 2 6 23 373 375 374
647 2 2 6 23 373 376 375
648 2 2 6 23 373 384 376
649 2 2 6 23 375 394 374
650 2 2 6 23 374 386 382
651 2 2 6 23 376 377 375
652 2 2 6 23 377 378 375
653 2 2 6 23 378 394 375
654 2 2 6 23 376 379 377
655 2 2 6 23 376 381 379
656 2 2 6 23 376 384 381
657 2 2 6 23 377 390 378
658 2 2 6 23 379 380 377
659 2 2 6 23 380 390 377
660 2 2 6 23 378 392 383
661 2 2 6 23 383 394 378
662 2 2 6 23 390 392 378
663 2 2 6 23 379 391 380
664 2 2 6 23 386 396 382
665 2 2 6 24 30 429 116
666 2 2 6 24 136 429 30
667 2 2 6 24 120 432 31
668 2 2 6 24 31 432 161
669 2 2 6 24 33 431 140
670 2 2 6 24 151 431 33
671 2 2 6 24 35 430 155
672 2 2 6 24 165 430 35
673 2 2 6 24 116 418 117
674 2 2 6 24 116 429 418
675 2 2 6 24 117 399 118
676 2 2 6 24 117 418 399
677 2 2 6 24 118 423 119
678 2 2 6 24 399 423 118
679 2 2 6 24 119 404 120
680 2 2 6 24 119 423 404
681 2 2 6 24 404 432 120
682 2 2 6 24 137 421 136
683 2 2 6 24 421 429 136
684 2 2 6 24 138 402 137
685 2 2 6 24 402 421 137
686 2 2 6 24 139 416 138
687 2 2 6 24 138 416 402
688 2 2 6 24 140 405 139
689 2 2 6 24 405 416 139
690 2 2 6 24 140 431 405
691 2 2 6 24 152 419 151
692 2 2 6 24 419 431 151
693 2 2 6 24 153 400 152
694 2 2 6 24 400 419 152
695 2 2 6 24 154 406 153
696 2 2 6 24 153 406 400
697 2 2 6 24 155 422 154
698 2 2 6 24 154 422 406
699 2 2 6 24 155 430 422
700 2 2 6 24 161 420 162
701 2 2 6 24 161 432 420
702 2 2 6 24 162 401 163
703 2 2 6 24 162 420 401
704 2 2 6 24 163 427 164
705 2 2 6 24 401 427 163
706 2 2 6 24 164 403 165
707 2 2 6 24 164 427 403
708 2 2 6 24 403 430 165
709 2 2 6 24 414 423 399
710 2 2 6 24 399 424 414
711 2 2 6 24 418 426 399
712 2 2 6 24 399 426 424
713 2 2 6 24 406 407 400
714 2 2 6 24 407 408 400
715 2 2 6 24 408 419 400
716 2 2 6 24 413 415 401
717 2 2 6 24 401 425 413
718 2 2 6 24 415 427 401
719 2 2 6 24 420 425 401
720 2 2 6 24 412 426 402
721 2 2 6 24 402 428 412
722 2 2 6 24 416 428 402
723 2 2 6 24 402 426 421
724 2 2 6 24 415 417 403
725 2 2 6 24 403 427 415
726 2 2 6 24 417 422 403
727 2 2 6 24 422 430 403
728 2 2 6 24 404 423 414
729 2 2 6 24 414 425 404
730 2 2 6 24 404 425 420
731 2 2 6 24 420 432 404
732 2 2 6 24 408 416 405
733 2 2 6 24 405 419 408
734 2 2 6 24 405 431 419
735 2 2 6 24 406 417 407
736 2 2 6 24 406 422 417
737 2 2 6 24 407 409 408
738 2 2 6 24 407 410 409
739 2 2 6 24 407 417 410
740 2 2 6 24 409 428 408
741 2 2 6 24 408 428 416
742 2 2 6 24 410 411 409
743 2 2 6 24 411 412 409
744 2 2 6 24 412 428 409
745 2 2 6 24 410 413 411
746 2 2 6 24 410 415 413
747 2 2 6 24 410 417 415
748 2 2 6 24 411 424 412
749 2 2 6 24 413 414 411
750 2 2 6 24 414 424 411
751 2 2 6 24 424 426 412
752 2 2 6 24 413 425 414
753 2 2 6 24 421 426 418
754 2 2 6 24 418 429 421
755 2 2 6 25 28 106 464
756 2 2 6 25 126 28 464
757 2 2 6 25 110 29 466
758 2 2 6 25 29 156 466
759 2 2 6 25 32 130 463
760 2 2 6 25 141 32 463
761 2 2 6 25 34 145 465
762 2 2 6 25 160 34 465
763 2 2 6 25 106 107 454
764 2 2 6 25 106 454 464
765 2 2 6 25 107 108 433
766 2 2 6 25 107 433 454
767 2 2 6 25 108 109 452
768 2 2 6 25 433 108 452
769 2 2 6 25 109 110 437
770 2 2 6 25 109 437 452
771 2 2 6 25 437 110 466
772 2 2 6 25 127 126 438
773 2 2 6 25 438 126 464
774 2 2 6 25 128 127 441
775 2 2 6 25 127 438 441
776 2 2 6 25 129 128 435
777 2 2 6 25 435 128 441
778 2 2 6 25 130 129 455
779 2 2 6 25 129 435 455
780 2 2 6 25 130 455 463
781 2 2 6 25 142 141 440
782 2 2 6 25 440 141 463
783 2 2 6 25 143 142 451
784 2 2 6 25 142 440 451
785 2 2 6 25 144 143 434
786 2 2 6 25 434 143 451
787 2 2 6 25 145 144 456
788 2 2 6 25 144 434 456
789 2 2 6 25 145 456 465
790 2 2 6 25 156 157 453
791 2 2 6 25 156 453 466
792 2 2 6 25 157 158 436
793 2 2 6 25 157 436 453
794 2 2 6 25 158 159 457
795 2 2 6 25 436 158 457
796 2 2 6 25 159 160 439
797 2 2 6 25 159 439 457
798 2 2 6 25 439 160 465
799 2 2 6 25 433 450 454
800 2 2 6 25 450 433 461
801 2 2 6 25 433 452 461
802 2 2 6 25 434 448 459
803 2 2 6 25 448 434 462
804 2 2 6 25 434 451 462
805 2 2 6 25 456 434 459
806 2 2 6 25 435 441 442
807 2 2 6 25 435 442 443
808 2 2 6 25 435 443 455
809 2 2 6 25 449 436 457
810 2 2 6 25 436 449 458
811 2 2 6 25 453 436 460
812 2 2 6 25 436 458 460
813 2 2 6 25 452 437 460
814 2 2 6 25 437 453 460
815 2 2 6 25 453 437 466
816 2 2 6 25 441 438 450
817 2 2 6 25 450 438 454
818 2 2 6 25 454 438 464
819 2 2 6 25 439 449 457
820 2 2 6 25 449 439 459
821 2 2 6 25 439 456 459
822 2 2 6 25 456 439 465
823 2 2 6 25 440 443 451
824 2 2 6 25 443 440 455
825 2 2 6 25 455 440 463
826 2 2 6 25 442 441 450
827 2 2 6 25 443 442 444
828 2 2 6 25 444 442 445
829 2 2 6 25 445 442 450
830 2 2 6 25 443 444 462
831 2 2 6 25 451 443 462
832 2 2 6 25 444 445 446
833 2 2 6 25 444 446 448
834 2 2 6 25 444 448 462
835 2 2 6 25 446 445 447
836 2 2 6 25 447 445 461
837 2 2 6 25 445 450 461
838 2 2 6 25 446 447 458
839 2 2 6 25 448 446 449
840 2 2 6 25 449 446 458
841 2 2 6 25 447 452 460
842 2 2 6 25 452 447 461
843 2 2 6 25 458 447 460
844 2 2 6 25 448 449 459
845 2 2 7 26 36 172 166
846 2 2 7 26 171 467 36
847 2 2 7 26 36 468 172
848 2 2 7 26 467 468 36
849 2 2 7 26 37 166 172
850 2 2 7 26 37 174 166
851 2 2 7 26 172 468 37
852 2 2 7 26 37 467 175
853 2 2 7 26 37 468 467
854 2 2 7 26 168 38 169
855 2 2 7 26 173 38 168
856 2 2 7 26 38 176 169
857 2 2 7 26 166 174 167
858 2 2 7 26 167 173 168
859 2 2 7 26 174 173 167
860 2 2 7 26 169 176 170
861 2 2 7 26 170 175 171
862 2 2 7 26 176 175 170
863 2 2 7 26 175 467 171
864 2 2 7 27 39 470 177
865 2 2 7 27 178 470 39
866 2 2 7 27 177 472 40
867 2 2 7 27 40 472 181
868 2 2 7 27 41 471 179
869 2 2 7 27 180 471 41
870 2 2 7 27 42 473 180
871 2 2 7 27 182 473 42
872 2 2 7 27 470 472 177
873 2 2 7 27 179 469 178
874 2 2 7 27 469 470 178
875 2 2 7 27 179 471 469
876 2 2 7 27 180 473 471
877 2 2 7 27 181 469 182
878 2 2 7 27 181 472 469
879 2 2 7 27 469 473 182
880 2 2 7 27 469 472 470
881 2 2 7 27 471 473 469
882 2 2 7 28 40 181 476
883 2 2 7 28 186 40 476
884 2 2 7 28 182 42 475
885 2 2 7 28 42 183 475
886 2 2 7 28 183 43 475
887 2 2 7 28 43 185 475
888 2 2 7 28 184 44 476
889 2 2 7 28 44 186 476
890 2 2 7 28 181 182 474
891 2 2 7 28 181 474 476
892 2 2 7 28 474 182 475
893 2 2 7 28 185 184 474
894 2 2 7 28 474 184 476
895 2 2 7 28 185 474 475
896 2 2 7 29 180 41 187
897 2 2 7 29 183 42 180
898 2 2 7 29 183 188 43
899 2 2 7 29 187 45 188
900 2 2 7 29 183 180 188
901 2 2 7 29 188 180 187
902 2 2 7 30 39 479 178
903 2 2 7 30 189 479 39
904 2 2 7 30 179 478 41
905 2 2 7 30 41 478 187
906 2 2 7 30 187 478 45
907 2 2 7 30 45 478 191
908 2 2 7 30 46 479 189
909 2 2 7 30 190 479 46
910 2 2 7 30 178 477 179
911 2 2 7 30 178 479 477
912 2 2 7 30 477 478 179
913 2 2 7 30 191 477 190
914 2 2 7 30 477 479 190
915 2 2 7 30 191 478 477
916 2 2 7 31 36 166 490
917 2 2 7 31 171 36 490
918 2 2 7 31 39 177 487
919 2 2 7 31 189 39 480
920 2 2 7 31 480 39 487
921 2 2 7 31 177 40 481
922 2 2 7 31 40 186 481
923 2 2 7 31 186 44 482
924 2 2 7 31 44 192 482
925 2 2 7 31 46 189 483
926 2 2 7 31 192 46 483
927 2 2 7 31 166 167 486
928 2 2 7 31 485 166 486
929 2 2 7 31 166 485 490
930 2 2 7 31 177 167 168
931 2 2 7 31 167 177 481
932 2 2 7 31 167 481 486
933 2 2 7 31 169 177 168
934 2 2 7 31 169 170 487
935 2 2 7 31 177 169 487
936 2 2 7 31 170 171 489
937 2 2 7 31 487 170 489
938 2 2 7 31 171 488 489
939 2 2 7 31 488 171 490
940 2 2 7 31 481 186 482
941 2 2 7 31 189 480 483
942 2 2 7 31 482 192 491
943 2 2 7 31 192 483 491
944 2 2 7 31 483 480 484
945 2 2 7 31 484 480 487
946 2 2 7 31 481 482 486
947 2 2 7 31 482 485 486
948 2 2 7 31 485 482 491
949 2 2 7 31 483 484 491
950 2 2 7 31 484 487 488
951 2 2 7 31 484 488 490
952 2 2 7 31 484 490 491
953 2 2 7 31 490 485 491
954 2 2 7 31 488 487 489
955 2 2 7 32 185 43 494
956 2 2 7 32 43 188 494
957 2 2 7 32 44 184 493
958 2 2 7 32 192 44 493
959 2 2 7 32 188 45 496
960 2 2 7 32 45 191 496
961 2 2 7 32 190 46 495
962 2 2 7 32 46 192 495
963 2 2 7 32 184 185 492
964 2 2 7 32 184 492 493
965 2 2 7 32 492 185 494
966 2 2 7 32 494 188 496
967 2 2 7 32 191 190 492
968 2 2 7 32 492 190 495
969 2 2 7 32 191 492 496
970 2 2 7 32 192 493 495
971 2 2 7 32 493 492 495
972 2 2 7 32 492 494 496
973 2 2 7 33 37 497 174
974 2 2 7 33 175 497 37
975 2 2 7 33 173 497 38
976 2 2 7 33 38 497 176
977 2 2 7 33 174 497 173
978 2 2 7 33 176 497 175
979 4 2 1 1 70 9 208 228
980 4 2 1 1 215 236 62 63
981 4 2 1 1 2 84 83 17
982 4 2 1 1 14 11 77 83
983 4 2 1 1 84 18 1 85
984 4 2 1 1 10 85 15 77
985 4 2 1 1 19 240 3 89
986 4 2 1 1 18 1 87 241
987 4 2 1 1 19 3 240 86
988 4 2 1 1 226 8 12 88
989 4 2 1 1 9 13 80 223
990 4 2 1 1 80 16 4 223
991 4 2 1 1 88 226 3 19
992 4 2 1 1 77 84 83 71
993 4 2 1 1 85 72 84 77
994 4 2 1 1 16 81 4 223
995 4 2 1 1 9 13 223 75
996 4 2 1 1 17 222 2 82
997 4 2 1 1 11 14 76 222
998 4 2 1 1 241 18 1 84
999 4 2 1 1 228 208 64 9
1000 4 2 1 1 227 88 211 230
1001 4 2 1 1 8 12 74 204
1002 4 2 1 1 18 87 1 225
1003 4 2 1 1 78 8 12 226
1004 4 2 1 1 15 225 10 79
1005 4 2 1 1 19 226 3 86
1006 4 2 1 1 86 49 240 239
1007 4 2 1 1 241 48 87 239
1008 4 2 1 1 210 16 4 80
1009 4 2 1 1 237 58 5 198
1010 4 2 1 1 229 210 213 214
1011 4 2 1 1 74 13 9 219
1012 4 2 1 1 242 16 4 89
1013 4 2 1 1 243 82 52 239
1014 4 2 1 1 81 51 239 242
1015 4 2 1 1 16 4 81 242
1016 4 2 1 1 13 9 219 75
1017 4 2 1 1 11 14 220 76
1018 4 2 1 1 2 243 17 82
1019 4 2 1 1 12 8 78 204
1020 4 2 1 1 10 15 79 203
1021 4 2 1 1 18 1 85 225
1022 4 2 1 1 10 85 225 15
1023 4 2 1 1 83 222 2 17
1024 4 2 1 1 11 14 222 83
1025 4 2 1 1 10 15 203 77
1026 4 2 1 1 215 235 231 212
1027 4 2 1 1 213 50 229 238
1028 4 2 1 1 51 82 239 52
1029 4 2 1 1 82 51 239 81
1030 4 2 1 1 52 82 222 221
1031 4 2 1 1 223 81 51 221
1032 4 2 1 1 11 14 77 220
1033 4 2 1 1 243 84 2 17
1034 4 2 1 1 213 238 229 232
1035 4 2 1 1 75 216 76 68
1036 4 2 1 1 76 69 222 221
1037 4 2 1 1 75 221 223 68
1038 4 2 1 1 225 66 79 224
1039 4 2 1 1 78 65 226 224
1040 4 2 1 1 70 80 4 223
1041 4 2 1 1 73 226 3 88
1042 4 2 1 1 8 226 73 88
1043 4 2 1 1 70 9 80 223
1044 4 2 1 1 83 84 2 71
1045 4 2 1 1 72 84 1 85
1046 4 2 1 1 83 11 77 71
1047 4 2 1 1 85 10 72 77
1048 4 2 1 1 69 76 216 68
1049 4 2 1 1 234 12 8 227
1050 4 2 1 1 13 9 80 228
1051 4 2 1 1 74 9 13 228
1052 4 2 1 1 198 237 58 235
1053 4 2 1 1 226 49 86 224
1054 4 2 1 1 87 48 225 224
1055 4 2 1 1 8 215 234 227
1056 4 2 1 1 199 237 5 198
1057 4 2 1 1 208 228 60 54
1058 4 2 1 1 210 80 70 228
1059 4 2 1 1 6 237 199 198
1060 4 2 1 1 74 12 8 234
1061 4 2 1 1 211 88 3 19
1062 4 2 1 1 60 228 74 54
1063 4 2 1 1 243 196 241 239
1064 4 2 1 1 242 239 240 197
1065 4 2 1 1 228 208 233 54
1066 4 2 1 1 223 205 51 207
1067 4 2 1 1 246 65 244 226
1068 4 2 1 1 244 245 225 66
1069 4 2 1 1 222 206 52 205
1070 4 2 1 1 64 9 74 228
1071 4 2 1 1 195 50 3 240
1072 4 2 1 1 193 49 48 239
1073 4 2 1 1 208 228 64 60
1074 4 2 1 1 237 238 213 232
1075 4 2 1 1 207 223 205 68
1076 4 2 1 1 244 246 226 49
1077 4 2 1 1 245 48 244 225
1078 4 2 1 1 206 222 69 205
1079 4 2 1 1 241 194 48 239
1080 4 2 1 1 49 195 240 239
1081 4 2 1 1 234 57 63 56
1082 4 2 1 1 228 70 210 208
1083 4 2 1 1 196 243 52 239
1084 4 2 1 1 242 51 239 197
1085 4 2 1 1 59 5 237 53
1086 4 2 1 1 208 214 233 54
1087 4 2 1 1 51 82 52 221
1088 4 2 1 1 4 50 197 242
1089 4 2 1 1 12 8 227 88
1090 4 2 1 1 81 82 51 221
1091 4 2 1 1 52 51 193 239
1092 4 2 1 1 194 241 196 239
1093 4 2 1 1 239 195 240 197
1094 4 2 1 1 241 1 194 47
1095 4 2 1 1 50 240 242 89
1096 4 2 1 1 74 55 60 54
1097 4 2 1 1 67 77 11 71
1098 4 2 1 1 71 84 2 47
1099 4 2 1 1 72 1 84 47
1100 4 2 1 1 77 10 72 67
1101 4 2 1 1 2 52 196 243
1102 4 2 1 1 51 4 197 242
1103 4 2 1 1 223 70 9 207
1104 4 2 1 1 223 4 70 207
1105 4 2 1 1 226 246 8 73
1106 4 2 1 1 3 246 226 73
1107 4 2 1 1 48 1 194 241
1108 4 2 1 1 3 49 195 240
1109 4 2 1 1 75 76 221 68
1110 4 2 1 1 4 210 80 70
1111 4 2 1 1 240 50 3 89
1112 4 2 1 1 195 49 193 239
1113 4 2 1 1 193 48 194 239
1114 4 2 1 1 227 8 209 73
1115 4 2 1 1 229 208 214 233
1116 4 2 1 1 47 2 196 243
1117 4 2 1 1 214 208 60 54
1118 4 2 1 1 76 69 221 68
1119 4 2 1 1 5 237 199 59
1120 4 2 1 1 50 89 210 229
1121 4 2 1 1 66 244 65 224
1122 4 2 1 1 52 205 51 221
1123 4 2 1 1 88 73 227 211
1124 4 2 1 1 89 50 238 229
1125 4 2 1 1 89 4 50 210
1126 4 2 1 1 74 64 228 60
1127 4 2 1 1 232 229 213 214
1128 4 2 1 1 54 60 214 61
1129 4 2 1 1 215 8 209 227
1130 4 2 1 1 2 52 243 82
1131 4 2 1 1 51 4 242 81
1132 4 2 1 1 193 196 52 239
1133 4 2 1 1 51 193 239 197
1134 4 2 1 1 64 8 74 204
1135 4 2 1 1 241 84 47 243
1136 4 2 1 1 208 229 228 233
1137 4 2 1 1 205 52 222 221
1138 4 2 1 1 226 65 244 224
1139 4 2 1 1 66 225 244 224
1140 4 2 1 1 51 205 223 221
1141 4 2 1 1 4 50 242 89
1142 4 2 1 1 49 240 3 86
1143 4 2 1 1 48 87 1 241
1144 4 2 1 1 1 72 85 225
1145 4 2 1 1 2 222 83 71
1146 4 2 1 1 85 72 10 225
1147 4 2 1 1 83 222 11 71
1148 4 2 1 1 48 49 244 224
1149 4 2 1 1 221 69 205 68
1150 4 2 1 1 237 6 59 53
1151 4 2 1 1 1 241 84 47
1152 4 2 1 1 11 69 76 220
1153 4 2 1 1 68 9 75 219
1154 4 2 1 1 70 80 9 228
1155 4 2 1 1 66 10 79 203
1156 4 2 1 1 8 65 78 204
1157 4 2 1 1 53 233 232 61
1158 4 2 1 1 72 1 245 225
1159 4 2 1 1 72 245 10 225
1160 4 2 1 1 206 11 222 71
1161 4 2 1 1 222 2 206 71
1162 4 2 1 1 50 238 230 89
1163 4 2 1 1 205 222 69 221
1164 4 2 1 1 225 48 244 224
1165 4 2 1 1 49 226 244 224
1166 4 2 1 1 205 223 221 68
1167 4 2 1 1 193 194 196 239
1168 4 2 1 1 193 195 239 197
1169 4 2 1 1 54 214 233 61
1170 4 2 1 1 88 3 73 211
1171 4 2 1 1 77 203 10 67
1172 4 2 1 1 227 209 231 230
1173 4 2 1 1 73 227 8 88
1174 4 2 1 1 47 84 2 243
1175 4 2 1 1 231 234 215 227
1176 4 2 1 1 53 54 233 61
1177 4 2 1 1 57 236 234 63
1178 4 2 1 1 50 240 195 197
1179 4 2 1 1 199 237 6 59
1180 4 2 1 1 240 50 242 197
1181 4 2 1 1 234 215 64 63
1182 4 2 1 1 215 234 236 63
1183 4 2 1 1 214 232 229 233
1184 4 2 1 1 198 58 62 235
1185 4 2 1 1 209 231 215 227
1186 4 2 1 1 194 241 47 196
1187 4 2 1 1 196 241 47 243
1188 4 2 1 1 230 212 231 238
1189 4 2 1 1 210 229 228 208
1190 4 2 1 1 209 227 73 211
1191 4 2 1 1 57 62 236 63
1192 4 2 1 1 210 229 208 214
1193 4 2 1 1 63 7 64 56
1194 4 2 1 1 209 227 211 230
1195 4 2 1 1 238 212 237 213
1196 4 2 1 1 236 62 58 235
1197 4 2 1 1 235 234 215 231
1198 4 2 1 1 236 234 215 235
1199 4 2 1 1 58 62 236 57
1200 4 2 1 1 68 69 200 216
1201 4 2 1 1 218 15 77 203
1202 4 2 1 1 237 231 212 238
1203 4 2 1 1 202 217 74 219
1204 4 2 1 1 212 62 215 235
1205 4 2 1 1 201 220 218 216
1206 4 2 1 1 12 78 217 204
1207 4 2 1 1 12 217 74 204
1208 4 2 1 1 80 16 229 210
1209 4 2 1 1 62 236 215 235
1210 4 2 1 1 209 212 215 231
1211 4 2 1 1 231 235 237 212
1212 4 2 1 1 212 50 213 238
1213 4 2 1 1 19 88 230 211
1214 4 2 1 1 78 200 79 216
1215 4 2 1 1 79 15 218 203
1216 4 2 1 1 220 218 77 201
1217 4 2 1 1 69 11 201 220
1218 4 2 1 1 210 229 80 228
1219 4 2 1 1 50 210 213 229
1220 4 2 1 1 219 202 217 216
1221 4 2 1 1 6 212 213 237
1222 4 2 1 1 68 200 202 216
1223 4 2 1 1 200 69 201 216
1224 4 2 1 1 9 68 202 219
1225 4 2 1 1 230 50 212 238
1226 4 2 1 1 230 212 50 211
1227 4 2 1 1 210 16 89 4
1228 4 2 1 1 89 16 210 229
1229 4 2 1 1 224 48 86 87
1230 4 2 1 1 224 86 48 49
1231 4 2 1 1 239 86 48 87
1232 4 2 1 1 239 48 86 49
1233 4 2 1 1 212 230 209 211
1234 4 2 1 1 209 230 212 231
1235 4 2 1 1 200 79 203 66
1236 4 2 1 1 78 200 204 65
1237 4 2 1 1 8 64 234 215
1238 4 2 1 1 8 234 64 74
1239 4 2 1 1 216 69 220 76
1240 4 2 1 1 216 220 69 201
1241 4 2 1 1 68 216 219 75
1242 4 2 1 1 68 219 216 202
1243 4 2 1 1 224 65 79 78
1244 4 2 1 1 224 79 65 66
1245 4 2 1 1 200 79 65 78
1246 4 2 1 1 200 65 79 66
1247 4 2 1 1 50 89 211 3
1248 4 2 1 1 50 211 89 230
1249 4 2 1 1 19 211 89 3
1250 4 2 1 1 19 89 211 230
1251 4 2 1 1 214 61 232 233
1252 4 2 1 1 232 61 214 213
1253 4 2 1 1 202 74 204 64
1254 4 2 1 1 202 204 74 217
1255 4 2 1 1 223 9 68 207
1256 4 2 1 1 223 68 9 75
1257 4 2 1 1 223 4 51 81
1258 4 2 1 1 51 4 223 207
1259 4 2 1 1 222 11 69 76
1260 4 2 1 1 69 11 222 206
1261 4 2 1 1 222 2 52 206
1262 4 2 1 1 222 52 2 82
1263 4 2 1 1 226 8 65 78
1264 4 2 1 1 226 65 8 246
1265 4 2 1 1 226 3 49 246
1266 4 2 1 1 49 3 226 86
1267 4 2 1 1 1 225 48 245
1268 4 2 1 1 48 225 1 87
1269 4 2 1 1 225 10 66 245
1270 4 2 1 1 66 10 225 79
1271 4 2 1 1 232 53 213 237
1272 4 2 1 1 232 213 53 61
1273 4 2 1 1 6 213 53 237
1274 4 2 1 1 6 53 213 61
1275 4 2 1 1 74 202 9 64
1276 4 2 1 1 9 202 74 219
1277 4 2 1 1 77 201 203 67
1278 4 2 1 1 203 201 77 218
1279 4 2 1 1 78 216 204 200
1280 4 2 1 1 78 204 216 217
1281 4 2 1 1 202 204 216 200
1282 4 2 1 1 202 216 204 217
1283 4 2 1 1 79 216 203 218
1284 4 2 1 1 79 203 216 200
1285 4 2 1 1 201 203 216 218
1286 4 2 1 1 201 216 203 200
1287 4 2 1 1 201 77 11 67
1288 4 2 1 1 201 11 77 220
1289 4 2 1 1 56 234 64 63
1290 4 2 1 1 56 64 234 74
1291 4 2 1 1 74 60 7 64
1292 4 2 1 1 7 60 74 55
1293 4 2 1 1 7 56 74 64
1294 4 2 1 1 74 56 7 55
1295 4 2 1 1 62 198 212 6
1296 4 2 1 1 62 212 198 235
1297 4 2 1 1 237 212 198 6
1298 4 2 1 1 237 198 212 235
1299 4 2 1 1 71 84 67 77
1300 4 2 1 1 71 67 84 47
1301 4 2 1 1 72 67 84 77
1302 4 2 1 1 72 84 67 47
1303 4 2 2 2 252 251 254 259
1304 4 2 2 2 250 253 258 252
1305 4 2 2 2 249 257 247 260
1306 4 2 2 2 248 260 247 256
1307 4 2 2 2 249 262 257 260
1308 4 2 2 2 260 248 261 256
1309 4 2 2 2 251 257 247 249
1310 4 2 2 2 248 247 250 256
1311 4 2 2 2 251 252 247 259
1312 4 2 2 2 247 250 258 252
1313 4 2 2 2 257 251 247 259
1314 4 2 2 2 258 250 247 256
1315 4 2 2 2 260 255 247 256
1316 4 2 2 2 257 255 247 260
1317 4 2 2 2 258 247 252 255
1318 4 2 2 2 255 247 252 259
1319 4 2 2 2 259 255 247 257
1320 4 2 2 2 258 247 255 256
1321 4 2 2 2 91 252 251 254
1322 4 2 2 2 253 250 92 252
1323 4 2 2 2 252 254 97 259
1324 4 2 2 2 98 258 253 252
1325 4 2 2 2 257 105 262 249
1326 4 2 2 2 248 104 261 256
1327 4 2 2 2 249 251 257 93
1328 4 2 2 2 248 250 90 256
1329 4 2 2 2 257 251 259 93
1330 4 2 2 2 250 258 90 256
1331 4 2 2 2 257 105 249 93
1332 4 2 2 2 104 248 90 256
1333 4 2 2 2 256 261 260 102
1334 4 2 2 2 248 95 260 261
1335 4 2 2 2 262 101 257 260
1336 4 2 2 2 262 249 94 260
1337 4 2 2 2 98 258 252 255
1338 4 2 2 2 247 92 250 252
1339 4 2 2 2 255 252 97 259
1340 4 2 2 2 91 252 247 251
1341 4 2 2 2 259 103 257 93
1342 4 2 2 2 90 258 100 256
1343 4 2 2 2 99 254 251 259
1344 4 2 2 2 96 253 258 250
1345 4 2 2 2 251 99 259 93
1346 4 2 2 2 250 258 96 90
1347 4 2 2 2 256 260 255 102
1348 4 2 2 2 95 260 247 248
1349 4 2 2 2 255 257 101 260
1350 4 2 2 2 94 249 247 260
1351 4 2 2 2 90 100 104 256
1352 4 2 2 2 105 257 103 93
1353 4 2 2 2 258 100 96 90
1354 4 2 2 2 103 259 99 93
1355 4 2 2 2 260 101 255 102
1356 4 2 2 2 247 94 260 95
1357 4 2 2 2 97 98 252 255
1358 4 2 2 2 252 247 92 91
1359 4 2 2 2 105 262 249 23
1360 4 2 2 2 105 27 257 262
1361 4 2 2 2 21 248 104 261
1362 4 2 2 2 104 261 256 26
1363 4 2 2 2 105 249 93 23
1364 4 2 2 2 27 257 103 105
1365 4 2 2 2 248 90 21 104
1366 4 2 2 2 256 100 104 26
1367 4 2 2 2 248 21 95 261
1368 4 2 2 2 102 256 261 26
1369 4 2 2 2 27 101 257 262
1370 4 2 2 2 262 249 23 94
1371 4 2 2 2 99 251 22 93
1372 4 2 2 2 99 25 259 103
1373 4 2 2 2 20 250 96 90
1374 4 2 2 2 258 100 24 96
1375 4 2 2 2 253 250 20 92
1376 4 2 2 2 251 22 91 254
1377 4 2 2 2 254 25 97 259
1378 4 2 2 2 24 98 258 253
1379 4 2 2 2 254 251 22 99
1380 4 2 2 2 254 99 25 259
1381 4 2 2 2 250 96 253 20
1382 4 2 2 2 253 258 24 96
1383 4 2 3 3 413 425 43 525
1384 4 2 3 3 411 494 413 547
1385 4 2 3 3 499 503 473 520
1386 4 2 3 3 326 186 529 541
1387 4 2 3 3 445 506 442 537
1388 4 2 3 3 450 506 445 537
1389 4 2 3 3 40 511 316 529
1390 4 2 3 3 379 41 377 543
1391 4 2 3 3 496 191 512 547
1392 4 2 3 3 43 401 425 413
1393 4 2 3 3 43 425 401 515
1394 4 2 3 3 323 500 507 548
1395 4 2 3 3 496 417 45 549
1396 4 2 3 3 379 542 41 543
1397 4 2 3 3 323 507 500 522
1398 4 2 3 3 500 503 444 537
1399 4 2 3 3 182 499 473 520
1400 4 2 3 3 465 363 397 502
1401 4 2 3 3 495 46 428 546
1402 4 2 3 3 45 417 496 512
1403 4 2 3 3 492 494 411 547
1404 4 2 3 3 186 326 40 541
1405 4 2 3 3 413 411 185 494
1406 4 2 3 3 316 511 40 524
1407 4 2 3 3 435 500 321 548
1408 4 2 3 3 496 512 417 547
1409 4 2 3 3 401 365 43 515
1410 4 2 3 3 456 337 465 502
1411 4 2 3 3 495 428 545 546
1412 4 2 3 3 45 496 191 512
1413 4 2 3 3 445 450 442 506
1414 4 2 3 3 473 503 499 543
1415 4 2 3 3 185 43 413 494
1416 4 2 3 3 428 46 416 546
1417 4 2 3 3 377 534 514 543
1418 4 2 3 3 413 188 496 494
1419 4 2 3 3 428 408 46 495
1420 4 2 3 3 465 337 363 502
1421 4 2 3 3 477 508 479 531
1422 4 2 3 3 501 521 288 524
1423 4 2 3 3 190 46 408 495
1424 4 2 3 3 444 503 500 505
1425 4 2 3 3 415 496 417 547
1426 4 2 3 3 287 501 452 540
1427 4 2 3 3 477 516 508 531
1428 4 2 3 3 469 473 503 520
1429 4 2 3 3 458 446 514 537
1430 4 2 3 3 411 185 184 424
1431 4 2 3 3 496 415 417 549
1432 4 2 3 3 500 520 503 537
1433 4 2 3 3 190 495 408 547
1434 4 2 3 3 44 545 519 546
1435 4 2 3 3 413 43 185 525
1436 4 2 3 3 321 500 303 548
1437 4 2 3 3 45 417 512 549
1438 4 2 3 3 473 471 503 543
1439 4 2 3 3 408 495 428 547
1440 4 2 3 3 458 514 499 537
1441 4 2 3 3 377 41 180 543
1442 4 2 3 3 397 363 354 502
1443 4 2 3 3 450 501 506 537
1444 4 2 3 3 46 513 416 546
1445 4 2 3 3 397 354 388 502
1446 4 2 3 3 40 316 326 529
1447 4 2 3 3 401 43 188 413
1448 4 2 3 3 43 188 413 494
1449 4 2 3 3 185 411 492 494
1450 4 2 3 3 503 514 446 537
1451 4 2 3 3 178 500 503 505
1452 4 2 3 3 312 500 323 548
1453 4 2 3 3 167 177 168 504
1454 4 2 3 3 304 416 513 546
1455 4 2 3 3 408 46 190 523
1456 4 2 3 3 499 182 517 520
1457 4 2 3 3 316 511 282 529
1458 4 2 3 3 379 377 380 543
1459 4 2 3 3 40 310 524 538
1460 4 2 3 3 312 323 500 522
1461 4 2 3 3 304 513 315 546
1462 4 2 3 3 46 315 513 546
1463 4 2 3 3 441 299 500 506
1464 4 2 3 3 288 501 517 521
1465 4 2 3 3 377 180 534 543
1466 4 2 3 3 411 424 184 545
1467 4 2 3 3 499 517 501 520
1468 4 2 3 3 185 411 414 424
1469 4 2 3 3 379 380 542 543
1470 4 2 3 3 387 395 430 539
1471 4 2 3 3 499 514 503 537
1472 4 2 3 3 411 413 410 547
1473 4 2 3 3 287 265 452 501
1474 4 2 3 3 276 288 521 524
1475 4 2 3 3 469 473 471 503
1476 4 2 3 3 286 295 370 535
1477 4 2 3 3 304 416 319 513
1478 4 2 3 3 420 401 425 515
1479 4 2 3 3 398 370 295 535
1480 4 2 3 3 182 473 469 520
1481 4 2 3 3 500 505 178 507
1482 4 2 3 3 178 503 500 520
1483 4 2 3 3 408 46 416 428
1484 4 2 3 3 456 337 502 536
1485 4 2 3 3 46 408 416 513
1486 4 2 3 3 185 424 414 525
1487 4 2 3 3 465 397 439 502
1488 4 2 3 3 342 516 518 531
1489 4 2 3 3 190 508 477 516
1490 4 2 3 3 316 40 310 524
1491 4 2 3 3 44 519 297 546
1492 4 2 3 3 365 43 188 401
1493 4 2 3 3 415 417 410 547
1494 4 2 3 3 287 278 501 540
1495 4 2 3 3 39 500 178 507
1496 4 2 3 3 188 496 415 413
1497 4 2 3 3 36 490 166 504
1498 4 2 3 3 377 514 380 543
1499 4 2 3 3 411 409 545 547
1500 4 2 3 3 190 408 523 547
1501 4 2 3 3 495 545 192 546
1502 4 2 3 3 316 282 511 524
1503 4 2 3 3 178 507 505 531
1504 4 2 3 3 501 520 506 537
1505 4 2 3 3 425 515 43 525
1506 4 2 3 3 295 535 286 540
1507 4 2 3 3 408 428 409 547
1508 4 2 3 3 508 516 344 531
1509 4 2 3 3 401 420 365 515
1510 4 2 3 3 43 515 374 533
1511 4 2 3 3 354 363 337 502
1512 4 2 3 3 342 516 343 518
1513 4 2 3 3 422 430 353 539
1514 4 2 3 3 365 420 382 515
1515 4 2 3 3 360 350 502 542
1516 4 2 3 3 286 370 509 535
1517 4 2 3 3 315 304 319 513
1518 4 2 3 3 365 382 43 515
1519 4 2 3 3 408 513 46 523
1520 4 2 3 3 517 532 42 533
1521 4 2 3 3 374 43 382 515
1522 4 2 3 3 360 502 350 518
1523 4 2 3 3 342 344 516 531
1524 4 2 3 3 178 505 503 518
1525 4 2 3 3 265 433 501 527
1526 4 2 3 3 317 506 438 527
1527 4 2 3 3 344 343 342 516
1528 4 2 3 3 495 192 46 546
1529 4 2 3 3 40 326 316 310
1530 4 2 3 3 181 501 520 524
1531 4 2 3 3 365 401 188 549
1532 4 2 3 3 321 312 303 500
1533 4 2 3 3 297 314 421 519
1534 4 2 3 3 466 398 295 535
1535 4 2 3 3 321 299 312 500
1536 4 2 3 3 442 441 500 506
1537 4 2 3 3 443 444 500 505
1538 4 2 3 3 315 510 46 526
1539 4 2 3 3 515 532 267 533
1540 4 2 3 3 286 535 509 540
1541 4 2 3 3 492 411 185 184
1542 4 2 3 3 190 508 516 523
1543 4 2 3 3 182 42 517 532
1544 4 2 3 3 339 502 337 536
1545 4 2 3 3 288 517 275 521
1546 4 2 3 3 501 181 521 524
1547 4 2 3 3 440 351 505 548
1548 4 2 3 3 452 501 461 537
1549 4 2 3 3 422 353 512 539
1550 4 2 3 3 43 532 515 533
1551 4 2 3 3 430 361 353 539
1552 4 2 3 3 277 532 517 533
1553 4 2 3 3 276 288 275 521
1554 4 2 3 3 501 537 452 540
1555 4 2 3 3 470 178 500 520
1556 4 2 3 3 326 186 40 529
1557 4 2 3 3 181 506 40 524
1558 4 2 3 3 39 507 178 531
1559 4 2 3 3 181 520 506 524
1560 4 2 3 3 479 477 190 508
1561 4 2 3 3 500 506 312 522
1562 4 2 3 3 450 501 433 527
1563 4 2 3 3 389 457 439 514
1564 4 2 3 3 450 506 501 527
1565 4 2 3 3 312 303 500 548
1566 4 2 3 3 443 505 500 548
1567 4 2 3 3 322 312 506 522
1568 4 2 3 3 401 188 415 413
1569 4 2 3 3 456 465 439 502
1570 4 2 3 3 466 535 295 540
1571 4 2 3 3 427 401 372 549
1572 4 2 3 3 403 539 512 549
1573 4 2 3 3 378 375 42 534
1574 4 2 3 3 433 452 265 501
1575 4 2 3 3 414 413 411 185
1576 4 2 3 3 299 312 500 506
1577 4 2 3 3 501 524 290 527
1578 4 2 3 3 39 504 498 510
1579 4 2 3 3 178 477 479 531
1580 4 2 3 3 512 516 355 523
1581 4 2 3 3 439 397 371 502
1582 4 2 3 3 506 520 501 524
1583 4 2 3 3 459 502 449 536
1584 4 2 3 3 443 500 435 548
1585 4 2 3 3 265 501 290 527
1586 4 2 3 3 388 371 397 502
1587 4 2 3 3 312 323 303 548
1588 4 2 3 3 287 278 265 501
1589 4 2 3 3 361 430 395 539
1590 4 2 3 3 188 401 415 549
1591 4 2 3 3 435 321 303 548
1592 4 2 3 3 409 412 411 545
1593 4 2 3 3 443 462 444 505
1594 4 2 3 3 433 283 454 527
1595 4 2 3 3 379 41 376 377
1596 4 2 3 3 342 518 505 531
1597 4 2 3 3 368 374 515 533
1598 4 2 3 3 499 534 473 543
1599 4 2 3 3 382 43 374 365
1600 4 2 3 3 372 365 373 549
1601 4 2 3 3 440 351 451 505
1602 4 2 3 3 378 377 375 534
1603 4 2 3 3 316 310 324 524
1604 4 2 3 3 514 542 380 543
1605 4 2 3 3 184 424 544 545
1606 4 2 3 3 44 306 297 519
1607 4 2 3 3 350 518 502 536
1608 4 2 3 3 493 545 495 547
1609 4 2 3 3 352 513 508 526
1610 4 2 3 3 350 337 339 502
1611 4 2 3 3 350 502 339 536
1612 4 2 3 3 265 283 433 527
1613 4 2 3 3 456 339 337 536
1614 4 2 3 3 282 511 266 529
1615 4 2 3 3 416 405 319 513
1616 4 2 3 3 351 334 451 505
1617 4 2 3 3 351 341 505 548
1618 4 2 3 3 371 439 502 514
1619 4 2 3 3 433 461 452 501
1620 4 2 3 3 441 435 442 500
1621 4 2 3 3 500 506 177 520
1622 4 2 3 3 299 322 312 506
1623 4 2 3 3 266 300 316 529
1624 4 2 3 3 391 380 502 542
1625 4 2 3 3 388 502 354 542
1626 4 2 3 3 182 475 42 532
1627 4 2 3 3 414 413 185 525
1628 4 2 3 3 365 372 401 549
1629 4 2 3 3 449 459 439 502
1630 4 2 3 3 188 415 496 549
1631 4 2 3 3 297 306 314 519
1632 4 2 3 3 171 170 489 504
1633 4 2 3 3 499 520 501 537
1634 4 2 3 3 316 282 266 529
1635 4 2 3 3 426 544 424 545
1636 4 2 3 3 339 334 505 536
1637 4 2 3 3 315 46 513 526
1638 4 2 3 3 44 306 528 546
1639 4 2 3 3 279 267 532 533
1640 4 2 3 3 368 515 267 533
1641 4 2 3 3 347 516 508 523
1642 4 2 3 3 414 425 413 525
1643 4 2 3 3 505 507 500 548
1644 4 2 3 3 278 517 501 540
1645 4 2 3 3 265 290 283 527
1646 4 2 3 3 455 443 435 548
1647 4 2 3 3 456 502 459 536
1648 4 2 3 3 371 391 380 502
1649 4 2 3 3 449 514 503 536
1650 4 2 3 3 341 507 505 548
1651 4 2 3 3 302 268 316 524
1652 4 2 3 3 449 502 514 536
1653 4 2 3 3 326 538 40 541
1654 4 2 3 3 474 184 185 532
1655 4 2 3 3 449 446 503 514
1656 4 2 3 3 346 508 344 531
1657 4 2 3 3 472 177 506 520
1658 4 2 3 3 485 166 490 504
1659 4 2 3 3 344 508 347 516
1660 4 2 3 3 191 516 512 523
1661 4 2 3 3 180 42 375 534
1662 4 2 3 3 342 505 341 531
1663 4 2 3 3 276 521 511 524
1664 4 2 3 3 501 181 517 521
1665 4 2 3 3 511 521 181 524
1666 4 2 3 3 339 434 334 536
1667 4 2 3 3 380 514 377 534
1668 4 2 3 3 44 297 306 546
1669 4 2 3 3 277 274 521 532
1670 4 2 3 3 450 438 506 527
1671 4 2 3 3 41 518 502 542
1672 4 2 3 3 45 384 376 373
1673 4 2 3 3 179 178 503 518
1674 4 2 3 3 374 183 43 533
1675 4 2 3 3 342 340 505 518
1676 4 2 3 3 411 412 424 545
1677 4 2 3 3 277 521 517 532
1678 4 2 3 3 45 516 478 539
1679 4 2 3 3 371 389 439 514
1680 4 2 3 3 322 522 506 538
1681 4 2 3 3 399 525 424 544
1682 4 2 3 3 377 41 376 180
1683 4 2 3 3 41 530 518 542
1684 4 2 3 3 386 267 368 515
1685 4 2 3 3 326 529 306 541
1686 4 2 3 3 302 524 324 527
1687 4 2 3 3 461 501 450 537
1688 4 2 3 3 448 449 503 536
1689 4 2 3 3 499 514 458 535
1690 4 2 3 3 180 375 377 534
1691 4 2 3 3 440 505 443 548
1692 4 2 3 3 478 45 191 516
1693 4 2 3 3 503 520 499 537
1694 4 2 3 3 46 510 315 546
1695 4 2 3 3 469 503 178 520
1696 4 2 3 3 450 433 454 527
1697 4 2 3 3 360 332 350 542
1698 4 2 3 3 488 171 489 504
1699 4 2 3 3 39 507 311 522
1700 4 2 3 3 447 452 537 540
1701 4 2 3 3 380 514 502 542
1702 4 2 3 3 447 452 461 537
1703 4 2 3 3 499 537 501 540
1704 4 2 3 3 178 505 518 531
1705 4 2 3 3 42 378 509 533
1706 4 2 3 3 446 444 503 537
1707 4 2 3 3 350 339 518 536
1708 4 2 3 3 470 178 39 500
1709 4 2 3 3 441 450 438 506
1710 4 2 3 3 311 507 39 526
1711 4 2 3 3 326 307 538 541
1712 4 2 3 3 316 268 282 524
1713 4 2 3 3 373 375 43 374
1714 4 2 3 3 516 530 478 539
1715 4 2 3 3 442 450 441 506
1716 4 2 3 3 502 518 41 543
1717 4 2 3 3 188 373 365 549
1718 4 2 3 3 46 510 189 526
1719 4 2 3 3 302 268 524 527
1720 4 2 3 3 375 43 188 373
1721 4 2 3 3 368 374 386 515
1722 4 2 3 3 191 523 512 547
1723 4 2 3 3 190 516 191 523
1724 4 2 3 3 439 449 502 514
1725 4 2 3 3 352 508 331 526
1726 4 2 3 3 302 316 324 524
1727 4 2 3 3 449 458 446 514
1728 4 2 3 3 352 357 331 508
1729 4 2 3 3 371 502 380 514
1730 4 2 3 3 502 542 514 543
1731 4 2 3 3 448 449 446 503
1732 4 2 3 3 375 188 43 183
1733 4 2 3 3 188 376 180 375
1734 4 2 3 3 416 408 405 513
1735 4 2 3 3 456 434 339 536
1736 4 2 3 3 376 188 45 373
1737 4 2 3 3 491 485 490 504
1738 4 2 3 3 450 461 433 501
1739 4 2 3 3 509 517 42 533
1740 4 2 3 3 301 513 352 526
1741 4 2 3 3 177 470 500 520
1742 4 2 3 3 455 435 303 548
1743 4 2 3 3 182 517 521 532
1744 4 2 3 3 45 187 188 376
1745 4 2 3 3 498 510 311 522
1746 4 2 3 3 472 506 177 538
1747 4 2 3 3 185 525 532 544
1748 4 2 3 3 426 519 544 545
1749 4 2 3 3 378 42 509 534
1750 4 2 3 3 448 503 444 536
1751 4 2 3 3 373 43 188 365
1752 4 2 3 3 521 532 271 544
1753 4 2 3 3 267 515 281 532
1754 4 2 3 3 456 439 459 502
1755 4 2 3 3 498 504 39 522
1756 4 2 3 3 375 188 376 373
1757 4 2 3 3 277 517 509 533
1758 4 2 3 3 512 523 407 547
1759 4 2 3 3 391 502 388 542
1760 4 2 3 3 315 513 301 526
1761 4 2 3 3 342 340 341 505
1762 4 2 3 3 351 341 334 505
1763 4 2 3 3 366 530 393 542
1764 4 2 3 3 43 373 374 365
1765 4 2 3 3 423 263 270 525
1766 4 2 3 3 277 279 532 533
1767 4 2 3 3 479 508 189 531
1768 4 2 3 3 42 394 378 533
1769 4 2 3 3 42 378 394 375
1770 4 2 3 3 290 501 288 524
1771 4 2 3 3 490 36 171 504
1772 4 2 3 3 393 366 349 530
1773 4 2 3 3 340 505 518 536
1774 4 2 3 3 41 381 530 542
1775 4 2 3 3 44 544 519 545
1776 4 2 3 3 511 521 273 544
1777 4 2 3 3 288 265 278 501
1778 4 2 3 3 187 45 384 376
1779 4 2 3 3 182 42 499 517
1780 4 2 3 3 45 384 373 549
1781 4 2 3 3 290 265 288 501
1782 4 2 3 3 325 352 331 526
1783 4 2 3 3 324 524 506 527
1784 4 2 3 3 381 393 530 542
1785 4 2 3 3 371 388 391 502
1786 4 2 3 3 44 476 186 511
1787 4 2 3 3 185 532 184 544
1788 4 2 3 3 470 469 178 520
1789 4 2 3 3 183 532 43 533
1790 4 2 3 3 343 518 516 530
1791 4 2 3 3 394 183 374 533
1792 4 2 3 3 512 516 45 539
1793 4 2 3 3 45 187 384 539
1794 4 2 3 3 39 510 311 526
1795 4 2 3 3 333 512 355 523
1796 4 2 3 3 325 301 352 526
1797 4 2 3 3 407 512 406 523
1798 4 2 3 3 288 501 278 517
1799 4 2 3 3 182 42 473 499
1800 4 2 3 3 462 448 444 536
1801 4 2 3 3 368 267 291 533
1802 4 2 3 3 340 339 505 536
1803 4 2 3 3 501 517 499 540
1804 4 2 3 3 42 509 499 517
1805 4 2 3 3 443 440 451 505
1806 4 2 3 3 426 421 519 545
1807 4 2 3 3 352 357 508 513
1808 4 2 3 3 505 507 341 531
1809 4 2 3 3 374 375 43 183
1810 4 2 3 3 307 326 306 541
1811 4 2 3 3 354 337 350 502
1812 4 2 3 3 447 537 499 540
1813 4 2 3 3 45 512 191 516
1814 4 2 3 3 444 448 446 503
1815 4 2 3 3 307 306 528 541
1816 4 2 3 3 39 480 504 510
1817 4 2 3 3 458 499 447 537
1818 4 2 3 3 444 442 443 500
1819 4 2 3 3 46 513 508 523
1820 4 2 3 3 326 310 40 538
1821 4 2 3 3 360 530 332 542
1822 4 2 3 3 381 187 41 530
1823 4 2 3 3 490 488 484 504
1824 4 2 3 3 503 514 499 543
1825 4 2 3 3 271 532 525 544
1826 4 2 3 3 471 179 503 543
1827 4 2 3 3 41 376 381 379
1828 4 2 3 3 179 178 469 503
1829 4 2 3 3 340 518 339 536
1830 4 2 3 3 177 500 470 522
1831 4 2 3 3 347 355 516 523
1832 4 2 3 3 40 524 506 538
1833 4 2 3 3 470 500 39 522
1834 4 2 3 3 315 313 510 526
1835 4 2 3 3 466 295 437 540
1836 4 2 3 3 190 477 191 516
1837 4 2 3 3 311 498 308 510
1838 4 2 3 3 311 298 507 526
1839 4 2 3 3 332 388 354 542
1840 4 2 3 3 479 189 39 531
1841 4 2 3 3 179 469 471 503
1842 4 2 3 3 45 373 188 549
1843 4 2 3 3 39 480 487 504
1844 4 2 3 3 332 349 366 530
1845 4 2 3 3 46 508 513 526
1846 4 2 3 3 381 366 393 542
1847 4 2 3 3 357 508 336 523
1848 4 2 3 3 39 500 507 522
1849 4 2 3 3 419 513 408 523
1850 4 2 3 3 180 473 534 543
1851 4 2 3 3 415 401 427 549
1852 4 2 3 3 473 499 42 534
1853 4 2 3 3 466 437 535 540
1854 4 2 3 3 177 470 39 522
1855 4 2 3 3 447 458 460 499
1856 4 2 3 3 279 267 281 532
1857 4 2 3 3 366 332 530 542
1858 4 2 3 3 380 377 390 534
1859 4 2 3 3 187 530 381 539
1860 4 2 3 3 381 530 393 539
1861 4 2 3 3 508 513 336 523
1862 4 2 3 3 177 472 470 520
1863 4 2 3 3 336 508 357 513
1864 4 2 3 3 39 311 510 522
1865 4 2 3 3 339 334 340 505
1866 4 2 3 3 370 264 286 509
1867 4 2 3 3 45 478 187 539
1868 4 2 3 3 476 184 474 521
1869 4 2 3 3 42 499 509 534
1870 4 2 3 3 414 424 399 525
1871 4 2 3 3 481 167 486 541
1872 4 2 3 3 375 180 188 183
1873 4 2 3 3 40 506 472 538
1874 4 2 3 3 298 359 507 526
1875 4 2 3 3 41 379 381 542
1876 4 2 3 3 502 41 542 543
1877 4 2 3 3 44 511 186 529
1878 4 2 3 3 514 534 499 543
1879 4 2 3 3 375 394 42 183
1880 4 2 3 3 187 381 384 539
1881 4 2 3 3 298 359 320 507
1882 4 2 3 3 453 466 437 535
1883 4 2 3 3 385 370 398 535
1884 4 2 3 3 385 398 453 535
1885 4 2 3 3 187 188 376 180
1886 4 2 3 3 376 377 180 375
1887 4 2 3 3 478 530 187 539
1888 4 2 3 3 453 398 466 535
1889 4 2 3 3 460 499 458 535
1890 4 2 3 3 271 273 521 544
1891 4 2 3 3 439 457 449 514
1892 4 2 3 3 376 187 41 381
1893 4 2 3 3 368 394 374 533
1894 4 2 3 3 371 380 389 514
1895 4 2 3 3 461 450 445 537
1896 4 2 3 3 406 512 333 523
1897 4 2 3 3 300 326 316 529
1898 4 2 3 3 179 518 503 543
1899 4 2 3 3 182 517 181 521
1900 4 2 3 3 192 510 46 546
1901 4 2 3 3 192 528 510 546
1902 4 2 3 3 436 458 514 535
1903 4 2 3 3 311 298 323 507
1904 4 2 3 3 358 516 512 539
1905 4 2 3 3 399 263 423 525
1906 4 2 3 3 348 507 359 526
1907 4 2 3 3 311 507 323 522
1908 4 2 3 3 506 524 501 527
1909 4 2 3 3 358 530 516 539
1910 4 2 3 3 306 519 44 529
1911 4 2 3 3 460 447 499 540
1912 4 2 3 3 320 359 335 507
1913 4 2 3 3 384 539 387 549
1914 4 2 3 3 406 356 400 523
1915 4 2 3 3 44 528 306 529
1916 4 2 3 3 443 442 435 500
1917 4 2 3 3 332 366 388 542
1918 4 2 3 3 39 510 498 522
1919 4 2 3 3 476 511 44 544
1920 4 2 3 3 289 286 509 540
1921 4 2 3 3 346 526 508 531
1922 4 2 3 3 361 395 338 539
1923 4 2 3 3 343 360 518 530
1924 4 2 3 3 295 286 269 540
1925 4 2 3 3 351 335 341 548
1926 4 2 3 3 347 344 346 508
1927 4 2 3 3 41 179 518 530
1928 4 2 3 3 395 387 369 539
1929 4 2 3 3 406 333 356 523
1930 4 2 3 3 389 367 457 514
1931 4 2 3 3 192 483 46 510
1932 4 2 3 3 343 516 345 530
1933 4 2 3 3 324 506 317 527
1934 4 2 3 3 181 40 511 524
1935 4 2 3 3 407 523 408 547
1936 4 2 3 3 516 518 179 530
1937 4 2 3 3 370 124 286 264
1938 4 2 3 3 43 525 515 532
1939 4 2 3 3 264 277 509 533
1940 4 2 3 3 114 316 302 268
1941 4 2 3 3 42 180 375 183
1942 4 2 3 3 376 384 187 381
1943 4 2 3 3 383 264 370 509
1944 4 2 3 3 44 511 529 544
1945 4 2 3 3 270 263 271 525
1946 4 2 3 3 266 300 113 316
1947 4 2 3 3 358 345 516 530
1948 4 2 3 3 313 315 301 526
1949 4 2 3 3 378 383 509 533
1950 4 2 3 3 417 512 407 547
1951 4 2 3 3 394 375 374 183
1952 4 2 3 3 448 459 449 536
1953 4 2 3 3 191 190 523 547
1954 4 2 3 3 481 186 40 541
1955 4 2 3 3 376 41 187 180
1956 4 2 3 3 446 445 444 537
1957 4 2 3 3 266 282 292 511
1958 4 2 3 3 515 525 281 532
1959 4 2 3 3 511 272 529 544
1960 4 2 3 3 184 544 44 545
1961 4 2 3 3 399 263 525 544
1962 4 2 3 3 46 189 508 526
1963 4 2 3 3 503 518 536 543
1964 4 2 3 3 335 507 341 548
1965 4 2 3 3 113 266 316 282
1966 4 2 3 3 419 336 513 523
1967 4 2 3 3 307 498 538 541
1968 4 2 3 3 462 505 451 536
1969 4 2 3 3 384 45 539 549
1970 4 2 3 3 503 518 505 536
1971 4 2 3 3 510 528 305 546
1972 4 2 3 3 502 536 518 543
1973 4 2 3 3 46 508 190 523
1974 4 2 3 3 42 475 183 532
1975 4 2 3 3 426 519 418 544
1976 4 2 3 3 394 42 183 533
1977 4 2 3 3 273 511 276 521
1978 4 2 3 3 356 419 400 523
1979 4 2 3 3 179 41 518 543
1980 4 2 3 3 181 182 469 520
1981 4 2 3 3 504 538 498 541
1982 4 2 3 3 169 487 170 504
1983 4 2 3 3 426 402 421 545
1984 4 2 3 3 490 171 488 504
1985 4 2 3 3 279 274 277 532
1986 4 2 3 3 355 512 358 516
1987 4 2 3 3 299 317 324 506
1988 4 2 3 3 186 511 40 529
1989 4 2 3 3 331 526 346 531
1990 4 2 3 3 267 279 291 533
1991 4 2 3 3 285 423 270 525
1992 4 2 3 3 356 336 419 523
1993 4 2 3 3 311 510 313 526
1994 4 2 3 3 380 390 514 534
1995 4 2 3 3 331 508 346 526
1996 4 2 3 3 114 316 268 282
1997 4 2 3 3 349 393 530 539
1998 4 2 3 3 273 272 511 544
1999 4 2 3 3 154 406 422 512
2000 4 2 3 3 280 263 117 418
2001 4 2 3 3 277 289 509 517
2002 4 2 3 3 519 529 272 544
2003 4 2 3 3 348 507 526 531
2004 4 2 3 3 315 510 305 546
2005 4 2 3 3 280 418 519 544
2006 4 2 3 3 124 370 383 264
2007 4 2 3 3 509 517 289 540
2008 4 2 3 3 272 519 284 529
2009 4 2 3 3 496 494 492 547
2010 4 2 3 3 492 493 495 547
2011 4 2 3 3 277 274 275 521
2012 4 2 3 3 340 350 339 518
2013 4 2 3 3 182 474 475 532
2014 4 2 3 3 42 532 183 533
2015 4 2 3 3 361 338 353 539
2016 4 2 3 3 456 459 434 536
2017 4 2 3 3 334 143 451 434
2018 4 2 3 3 367 514 390 534
2019 4 2 3 3 384 369 387 539
2020 4 2 3 3 422 353 154 512
2021 4 2 3 3 403 512 417 549
2022 4 2 3 3 428 412 409 545
2023 4 2 3 3 282 276 292 511
2024 4 2 3 3 514 534 367 535
2025 4 2 3 3 276 511 282 524
2026 4 2 3 3 40 472 177 538
2027 4 2 3 3 112 284 318 529
2028 4 2 3 3 271 525 263 544
2029 4 2 3 3 277 275 517 521
2030 4 2 3 3 281 515 285 525
2031 4 2 3 3 295 269 437 540
2032 4 2 3 3 289 264 277 509
2033 4 2 3 3 331 348 526 531
2034 4 2 3 3 462 443 451 505
2035 4 2 3 3 441 438 127 317
2036 4 2 3 3 188 496 45 549
2037 4 2 3 3 334 143 434 339
2038 4 2 3 3 426 399 424 544
2039 4 2 3 3 270 285 119 423
2040 4 2 3 3 39 504 487 522
2041 4 2 3 3 357 347 508 523
2042 4 2 3 3 331 346 348 531
2043 4 2 3 3 422 417 403 512
2044 4 2 3 3 266 511 272 529
2045 4 2 3 3 504 510 491 528
2046 4 2 3 3 491 490 484 504
2047 4 2 3 3 467 468 37 497
2048 4 2 3 3 395 369 338 539
2049 4 2 3 3 378 394 383 533
2050 4 2 3 3 112 266 284 529
2051 4 2 3 3 318 300 112 529
2052 4 2 3 3 462 451 434 536
2053 4 2 3 3 182 521 474 532
2054 4 2 3 3 325 359 298 526
2055 4 2 3 3 272 266 292 511
2056 4 2 3 3 367 436 457 514
2057 4 2 3 3 44 529 519 544
2058 4 2 3 3 325 331 359 526
2059 4 2 3 3 347 333 355 523
2060 4 2 3 3 392 509 370 535
2061 4 2 3 3 484 504 480 510
2062 4 2 3 3 304 319 416 139
2063 4 2 3 3 460 499 535 540
2064 4 2 3 3 142 351 334 451
2065 4 2 3 3 355 344 347 516
2066 4 2 3 3 404 515 425 525
2067 4 2 3 3 426 418 399 544
2068 4 2 3 3 300 266 112 529
2069 4 2 3 3 417 406 407 512
2070 4 2 3 3 365 382 420 162
2071 4 2 3 3 289 269 286 540
2072 4 2 3 3 367 534 390 535
2073 4 2 3 3 342 346 344 531
2074 4 2 3 3 404 423 285 525
2075 4 2 3 3 391 379 380 542
2076 4 2 3 3 45 512 539 549
2077 4 2 3 3 273 276 275 521
2078 4 2 3 3 271 521 274 532
2079 4 2 3 3 343 345 360 530
2080 4 2 3 3 320 323 298 507
2081 4 2 3 3 341 507 348 531
2082 4 2 3 3 491 510 483 528
2083 4 2 3 3 179 478 516 530
2084 4 2 3 3 474 181 476 521
2085 4 2 3 3 367 389 457 158
2086 4 2 3 3 400 419 408 523
2087 4 2 3 3 118 270 423 263
2088 4 2 3 3 137 421 297 314
2089 4 2 3 3 341 340 334 505
2090 4 2 3 3 457 389 439 159
2091 4 2 3 3 436 514 367 535
2092 4 2 3 3 263 399 117 418
2093 4 2 3 3 107 454 433 283
2094 4 2 3 3 392 378 509 534
2095 4 2 3 3 420 401 365 162
2096 4 2 3 3 337 456 144 339
2097 4 2 3 3 266 272 284 529
2098 4 2 3 3 153 356 400 406
2099 4 2 3 3 419 152 356 400
2100 4 2 3 3 154 333 406 512
2101 4 2 3 3 181 511 476 521
2102 4 2 3 3 372 373 384 549
2103 4 2 3 3 400 407 406 523
2104 4 2 3 3 177 487 504 522
2105 4 2 3 3 323 507 320 548
2106 4 2 3 3 139 319 416 405
2107 4 2 3 3 351 142 440 451
2108 4 2 3 3 390 534 392 535
2109 4 2 3 3 360 350 343 518
2110 4 2 3 3 441 127 299 317
2111 4 2 3 3 285 404 119 423
2112 4 2 3 3 355 358 345 516
2113 4 2 3 3 264 509 383 533
2114 4 2 3 3 324 322 299 506
2115 4 2 3 3 419 152 336 356
2116 4 2 3 3 326 307 310 538
2117 4 2 3 3 40 538 481 541
2118 4 2 3 3 153 356 406 333
2119 4 2 3 3 335 320 507 548
2120 4 2 3 3 285 515 404 525
2121 4 2 3 3 499 534 514 535
2122 4 2 3 3 278 289 517 540
2123 4 2 3 3 446 458 447 537
2124 4 2 3 3 154 353 333 512
2125 4 2 3 3 348 359 331 526
2126 4 2 3 3 342 343 340 518
2127 4 2 3 3 137 421 402 297
2128 4 2 3 3 285 281 267 515
2129 4 2 3 3 388 366 332 149
2130 4 2 3 3 414 399 423 525
2131 4 2 3 3 507 39 526 531
2132 4 2 3 3 357 336 347 523
2133 4 2 3 3 432 285 293 515
2134 4 2 3 3 281 525 271 532
2135 4 2 3 3 352 132 325 331
2136 4 2 3 3 134 320 298 359
2137 4 2 3 3 434 144 456 339
2138 4 2 3 3 324 322 506 538
2139 4 2 3 3 267 291 122 368
2140 4 2 3 3 476 44 184 544
2141 4 2 3 3 284 519 318 529
2142 4 2 3 3 354 388 332 149
2143 4 2 3 3 409 407 408 547
2144 4 2 3 3 185 525 43 532
2145 4 2 3 3 318 519 306 529
2146 4 2 3 3 419 405 408 513
2147 4 2 3 3 147 369 393 539
2148 4 2 3 3 192 491 483 528
2149 4 2 3 3 265 107 433 283
2150 4 2 3 3 320 134 335 359
2151 4 2 3 3 345 343 344 516
2152 4 2 3 3 271 273 274 521
2153 4 2 3 3 362 431 419 513
2154 4 2 3 3 325 132 352 301
2155 4 2 3 3 179 41 478 530
2156 4 2 3 3 436 458 449 514
2157 4 2 3 3 308 510 498 528
2158 4 2 3 3 315 319 301 513
2159 4 2 3 3 288 278 275 517
2160 4 2 3 3 390 367 380 514
2161 4 2 3 3 268 290 524 527
2162 4 2 3 3 460 453 437 535
2163 4 2 3 3 385 392 370 535
2164 4 2 3 3 382 420 396 515
2165 4 2 3 3 319 405 327 513
2166 4 2 3 3 374 382 386 515
2167 4 2 3 3 309 498 311 522
2168 4 2 3 3 420 432 396 515
2169 4 2 3 3 381 369 384 539
2170 4 2 3 3 286 264 289 509
2171 4 2 3 3 189 510 39 526
2172 4 2 3 3 378 383 392 509
2173 4 2 3 3 346 331 357 508
2174 4 2 3 3 273 271 272 544
2175 4 2 3 3 311 308 313 510
2176 4 2 3 3 426 424 412 545
2177 4 2 3 3 362 352 327 513
2178 4 2 3 3 386 267 122 368
2179 4 2 3 3 264 279 277 533
2180 4 2 3 3 298 359 325 133
2181 4 2 3 3 359 325 133 331
2182 4 2 3 3 157 385 453 535
2183 4 2 3 3 321 435 128 441
2184 4 2 3 3 44 528 192 546
2185 4 2 3 3 499 517 509 540
2186 4 2 3 3 408 407 400 523
2187 4 2 3 3 147 338 369 539
2188 4 2 3 3 392 534 509 535
2189 4 2 3 3 270 281 285 525
2190 4 2 3 3 276 273 292 511
2191 4 2 3 3 192 483 510 528
2192 4 2 3 3 335 359 348 507
2193 4 2 3 3 421 314 328 519
2194 4 2 3 3 180 471 473 543
2195 4 2 3 3 281 270 271 525
2196 4 2 3 3 421 328 429 519
2197 4 2 3 3 280 284 272 519
2198 4 2 3 3 450 454 438 527
2199 4 2 3 3 299 321 128 441
2200 4 2 3 3 306 318 314 519
2201 4 2 3 3 396 293 386 515
2202 4 2 3 3 280 418 294 519
2203 4 2 3 3 327 405 431 513
2204 4 2 3 3 159 389 439 371
2205 4 2 3 3 378 390 377 534
2206 4 2 3 3 353 358 512 539
2207 4 2 3 3 264 123 291 533
2208 4 2 3 3 294 418 429 519
2209 4 2 3 3 460 535 437 540
2210 4 2 3 3 280 519 272 544
2211 4 2 3 3 399 118 423 263
2212 4 2 3 3 341 335 348 507
2213 4 2 3 3 158 457 367 436
2214 4 2 3 3 311 309 308 498
2215 4 2 3 3 276 290 288 524
2216 4 2 3 3 264 383 123 533
2217 4 2 3 3 328 284 294 519
2218 4 2 3 3 170 487 489 504
2219 4 2 3 3 460 452 447 540
2220 4 2 3 3 268 290 282 524
2221 4 2 3 3 402 545 428 546
2222 4 2 3 3 404 285 432 515
2223 4 2 3 3 327 352 301 513
2224 4 2 3 3 349 530 358 539
2225 4 2 3 3 460 458 436 535
2226 4 2 3 3 273 272 292 511
2227 4 2 3 3 287 452 109 540
2228 4 2 3 3 358 349 345 530
2229 4 2 3 3 367 390 392 535
2230 4 2 3 3 318 284 328 519
2231 4 2 3 3 457 436 449 514
2232 4 2 3 3 342 341 348 531
2233 4 2 3 3 380 367 389 514
2234 4 2 3 3 313 301 325 526
2235 4 2 3 3 381 393 369 539
2236 4 2 3 3 293 267 386 515
2237 4 2 3 3 46 189 479 508
2238 4 2 3 3 362 419 336 513
2239 4 2 3 3 44 186 482 541
2240 4 2 3 3 44 192 545 546
2241 4 2 3 3 410 409 411 547
2242 4 2 3 3 417 407 410 547
2243 4 2 3 3 291 123 368 533
2244 4 2 3 3 475 474 185 532
2245 4 2 3 3 509 535 499 540
2246 4 2 3 3 324 310 322 538
2247 4 2 3 3 157 453 436 535
2248 4 2 3 3 509 534 499 535
2249 4 2 3 3 311 313 298 526
2250 4 2 3 3 367 385 157 535
2251 4 2 3 3 455 440 443 548
2252 4 2 3 3 479 190 46 508
2253 4 2 3 3 351 440 364 548
2254 4 2 3 3 327 431 362 513
2255 4 2 3 3 438 464 317 527
2256 4 2 3 3 452 437 109 540
2257 4 2 3 3 293 396 432 515
2258 4 2 3 3 347 356 333 523
2259 4 2 3 3 475 185 43 532
2260 4 2 3 3 366 391 388 542
2261 4 2 3 3 317 464 330 527
2262 4 2 3 3 283 296 464 527
2263 4 2 3 3 329 320 364 548
2264 4 2 3 3 294 429 328 519
2265 4 2 3 3 370 392 383 509
2266 4 2 3 3 383 368 123 533
2267 4 2 3 3 296 302 330 527
2268 4 2 3 3 352 336 357 513
2269 4 2 3 3 304 315 305 546
2270 4 2 3 3 335 364 320 548
2271 4 2 3 3 180 473 42 534
2272 4 2 3 3 504 528 491 541
2273 4 2 3 3 309 307 498 538
2274 4 2 3 3 302 296 268 527
2275 4 2 3 3 454 283 464 527
2276 4 2 3 3 440 463 364 548
2277 4 2 3 3 485 504 491 541
2278 4 2 3 3 498 510 504 528
2279 4 2 3 3 355 333 358 512
2280 4 2 3 3 277 278 289 517
2281 4 2 3 3 337 465 145 456
2282 4 2 3 3 343 350 340 518
2283 4 2 3 3 353 338 358 539
2284 4 2 3 3 304 138 416 546
2285 4 2 3 3 420 425 404 515
2286 4 2 3 3 183 475 43 532
2287 4 2 3 3 367 157 436 535
2288 4 2 3 3 109 269 287 540
2289 4 2 3 3 397 160 465 439
2290 4 2 3 3 487 480 484 504
2291 4 2 3 3 417 422 406 512
2292 4 2 3 3 192 495 493 545
2293 4 2 3 3 363 465 145 337
2294 4 2 3 3 186 476 40 511
2295 4 2 3 3 426 421 418 519
2296 4 2 3 3 414 404 425 525
2297 4 2 3 3 356 347 336 523
2298 4 2 3 3 372 387 164 549
2299 4 2 3 3 327 319 140 405
2300 4 2 3 3 141 440 364 351
2301 4 2 3 3 416 402 428 546
2302 4 2 3 3 309 522 322 538
2303 4 2 3 3 476 181 40 511
2304 4 2 3 3 478 191 477 516
2305 4 2 3 3 138 402 416 546
2306 4 2 3 3 472 469 470 520
2307 4 2 3 3 120 293 432 285
2308 4 2 3 3 422 430 155 353
2309 4 2 3 3 357 347 346 508
2310 4 2 3 3 382 420 161 396
2311 4 2 3 3 165 395 430 387
2312 4 2 3 3 420 161 396 432
2313 4 2 3 3 324 317 302 527
2314 4 2 3 3 437 269 109 540
2315 4 2 3 3 268 283 290 527
2316 4 2 3 3 332 360 349 530
2317 4 2 3 3 484 480 483 510
2318 4 2 3 3 405 140 327 431
2319 4 2 3 3 463 440 364 141
2320 4 2 3 3 469 472 181 520
2321 4 2 3 3 372 164 427 549
2322 4 2 3 3 182 181 474 521
2323 4 2 3 3 278 269 289 540
2324 4 2 3 3 464 126 438 317
2325 4 2 3 3 136 328 421 314
2326 4 2 3 3 415 403 417 549
2327 4 2 3 3 136 328 429 421
2328 4 2 3 3 295 125 286 370
2329 4 2 3 3 296 302 115 330
2330 4 2 3 3 125 295 398 370
2331 4 2 3 3 418 116 280 294
2332 4 2 3 3 453 156 398 385
2333 4 2 3 3 480 39 189 510
2334 4 2 3 3 397 150 354 363
2335 4 2 3 3 150 354 388 397
2336 4 2 3 3 328 111 294 284
2337 4 2 3 3 466 453 156 398
2338 4 2 3 3 361 155 430 353
2339 4 2 3 3 317 464 126 330
2340 4 2 3 3 283 106 464 296
2341 4 2 3 3 329 463 455 548
2342 4 2 3 3 418 429 116 294
2343 4 2 3 3 276 282 290 524
2344 4 2 3 3 164 387 403 549
2345 4 2 3 3 403 165 430 387
2346 4 2 3 3 268 302 115 296
2347 4 2 3 3 178 479 39 531
2348 4 2 3 3 402 138 297 546
2349 4 2 3 3 273 275 274 521
2350 4 2 3 3 307 528 498 541
2351 4 2 3 3 464 454 106 283
2352 4 2 3 3 366 381 379 542
2353 4 2 3 3 111 328 318 284
2354 4 2 3 3 296 330 464 527
2355 4 2 3 3 327 131 352 362
2356 4 2 3 3 329 135 364 320
2357 4 2 3 3 397 160 439 371
2358 4 2 3 3 498 522 309 538
2359 4 2 3 3 323 320 303 548
2360 4 2 3 3 447 445 446 537
2361 4 2 3 3 431 151 362 419
2362 4 2 3 3 130 329 463 455
2363 4 2 3 3 277 275 278 517
2364 4 2 3 3 333 353 358 512
2365 4 2 3 3 179 478 477 516
2366 4 2 3 3 351 364 335 548
2367 4 2 3 3 278 287 269 540
2368 4 2 3 3 312 311 323 522
2369 4 2 3 3 404 120 432 285
2370 4 2 3 3 295 437 110 466
2371 4 2 3 3 316 114 113 282
2372 4 2 3 3 293 285 267 515
2373 4 2 3 3 335 364 135 320
2374 4 2 3 3 361 395 146 338
2375 4 2 3 3 392 390 378 534
2376 4 2 3 3 131 352 301 327
2377 4 2 3 3 121 386 396 293
2378 4 2 3 3 344 355 345 516
2379 4 2 3 3 309 312 322 522
2380 4 2 3 3 190 492 495 547
2381 4 2 3 3 191 496 492 547
2382 4 2 3 3 187 478 41 530
2383 4 2 3 3 405 419 431 513
2384 4 2 3 3 455 303 329 548
2385 4 2 3 3 281 271 274 532
2386 4 2 3 3 369 146 395 338
2387 4 2 3 3 301 319 327 513
2388 4 2 3 3 396 386 382 515
2389 4 2 3 3 386 121 267 293
2390 4 2 3 3 308 305 510 528
2391 4 2 3 3 426 412 402 545
2392 4 2 3 3 421 429 418 519
2393 4 2 3 3 164 403 427 549
2394 4 2 3 3 497 468 37 172
2395 4 2 3 3 304 297 138 546
2396 4 2 3 3 123 124 383 264
2397 4 2 3 3 414 423 404 525
2398 4 2 3 3 387 372 384 549
2399 4 2 3 3 308 305 315 510
2400 4 2 3 3 348 346 342 531
2401 4 2 3 3 44 482 528 541
2402 4 2 3 3 349 358 338 539
2403 4 2 3 3 368 383 394 533
2404 4 2 3 3 280 294 284 519
2405 4 2 3 3 314 318 328 519
2406 4 2 3 3 169 168 177 504
2407 4 2 3 3 419 151 362 336
2408 4 2 3 3 362 336 352 513
2409 4 2 3 3 130 329 455 303
2410 4 2 3 3 412 428 402 545
2411 4 2 3 3 263 280 272 544
2412 4 2 3 3 269 437 110 295
2413 4 2 3 3 460 436 453 535
2414 4 2 3 3 392 385 367 535
2415 4 2 3 3 434 448 462 536
2416 4 2 3 3 177 39 487 522
2417 4 2 3 3 445 447 461 537
2418 4 2 3 3 44 493 184 545
2419 4 2 3 3 281 274 279 532
2420 4 2 3 3 404 432 420 515
2421 4 2 3 3 307 308 309 498
2422 4 2 3 3 291 279 264 533
2423 4 2 3 3 364 463 329 548
2424 4 2 3 3 309 310 307 538
2425 4 2 3 3 300 318 306 529
2426 4 2 3 3 437 452 460 540
2427 4 2 3 3 313 308 315 510
2428 4 2 3 3 448 434 459 536
2429 4 2 3 3 325 298 313 526
2430 4 2 3 3 177 481 40 538
2431 4 2 3 3 319 139 140 405
2432 4 2 3 3 440 141 142 351
2433 4 2 3 3 488 487 484 504
2434 4 2 3 3 485 491 482 541
2435 4 2 3 3 271 263 272 544
2436 4 2 3 3 305 307 306 528
2437 4 2 3 3 148 332 366 149
2438 4 2 3 3 416 138 304 139
2439 4 2 3 3 142 334 143 451
2440 4 2 3 3 326 300 306 529
2441 4 2 3 3 317 330 302 527
2442 4 2 3 3 438 454 464 527
2443 4 2 3 3 283 268 296 527
2444 4 2 3 3 117 116 280 418
2445 4 2 3 3 471 41 179 543
2446 4 2 3 3 403 164 165 387
2447 4 2 3 3 300 113 112 266
2448 4 2 3 3 349 360 345 530
2449 4 2 3 3 333 406 153 154
2450 4 2 3 3 29 295 466 398
2451 4 2 3 3 294 429 30 328
2452 4 2 3 3 361 430 35 395
2453 4 2 3 3 362 327 33 431
2454 4 2 3 3 465 34 397 363
2455 4 2 3 3 293 396 31 432
2456 4 2 3 3 364 32 329 463
2457 4 2 3 3 28 464 296 330
2458 4 2 3 3 438 126 127 317
2459 4 2 3 3 401 163 365 162
2460 4 2 3 3 154 422 155 353
2461 4 2 3 3 44 482 192 528
2462 4 2 3 3 138 137 402 297
2463 4 2 3 3 191 492 190 547
2464 4 2 3 3 434 143 144 339
2465 4 2 3 3 404 119 120 285
2466 4 2 3 3 122 121 267 386
2467 4 2 3 3 112 111 318 284
2468 4 2 3 3 456 145 337 144
2469 4 2 3 3 36 468 467 497
2470 4 2 3 3 156 453 157 385
2471 4 2 3 3 159 439 160 371
2472 4 2 3 3 489 487 488 504
2473 4 2 3 3 409 410 407 547
2474 4 2 3 3 382 420 162 161
2475 4 2 3 3 454 107 106 283
2476 4 2 3 3 415 427 403 549
2477 4 2 3 3 498 528 504 541
2478 4 2 3 3 366 379 391 542
2479 4 2 3 3 151 419 152 336
2480 4 2 3 3 455 129 130 303
2481 4 2 3 3 134 335 135 320
2482 4 2 3 3 132 352 301 131
2483 4 2 3 3 367 157 158 436
2484 4 2 3 3 44 192 493 545
2485 4 2 3 3 119 118 270 423
2486 4 2 3 3 108 107 433 265
2487 4 2 3 3 421 137 136 314
2488 4 2 3 3 483 189 46 510
2489 4 2 3 3 471 180 41 543
2490 4 2 3 3 149 354 388 150
2491 4 2 3 3 452 109 108 287
2492 4 2 3 3 299 128 127 441
2493 4 2 3 3 481 482 186 541
2494 4 2 3 3 369 146 338 147
2495 4 2 3 3 286 125 124 370
2496 4 2 3 3 302 115 114 268
2497 4 2 3 3 399 117 118 263
2498 4 2 3 3 312 309 311 522
2499 4 2 3 3 132 133 325 331
2500 4 2 3 3 359 298 134 133
2501 4 2 3 3 393 147 349 148
2502 4 2 3 3 372 427 164 163
2503 4 2 3 3 110 109 437 269
2504 4 2 3 3 30 111 294 328
2505 4 2 3 3 295 29 125 398
2506 4 2 3 3 327 140 33 431
2507 4 2 3 3 34 150 397 363
2508 4 2 3 3 155 430 35 361
2509 4 2 3 3 465 145 34 363
2510 4 2 3 3 328 429 30 136
2511 4 2 3 3 429 30 116 294
2512 4 2 3 3 296 115 28 330
2513 4 2 3 3 156 29 466 398
2514 4 2 3 3 463 364 32 141
2515 4 2 3 3 396 161 31 432
2516 4 2 3 3 106 28 464 296
2517 4 2 3 3 464 28 126 330
2518 4 2 3 3 480 189 483 510
2519 4 2 3 3 192 482 491 541
2520 4 2 3 3 440 455 463 548
2521 4 2 3 3 309 322 310 538
2522 4 2 3 3 303 320 329 548
2523 4 2 3 3 123 122 291 368
2524 4 2 3 3 169 177 487 504
2525 4 2 3 3 297 304 305 546
2526 4 2 3 3 32 130 329 463
2527 4 2 3 3 110 29 295 466
2528 4 2 3 3 160 34 397 465
2529 4 2 3 3 293 31 120 432
2530 4 2 3 3 151 362 33 431
2531 4 2 3 3 128 435 321 129
2532 4 2 3 3 356 152 153 400
2533 4 2 3 3 396 31 121 293
2534 4 2 3 3 35 361 395 146
2535 4 2 3 3 327 33 131 362
2536 4 2 3 3 395 430 35 165
2537 4 2 3 3 32 329 135 364
2538 4 2 3 3 159 457 389 158
2539 4 2 3 3 192 491 528 541
2540 4 2 3 3 497 36 468 172
2541 4 2 3 3 192 528 482 541
2542 4 2 3 3 173 38 497 168
2543 4 2 3 3 486 485 482 541
2544 4 2 3 3 482 481 486 541
2545 4 2 3 3 171 36 467 497
2546 4 2 3 3 175 171 467 497
2547 4 2 3 3 175 170 497 176
2548 4 2 3 3 169 38 497 176
2549 4 2 3 3 166 497 37 172
2550 4 2 3 3 174 497 37 166
2551 4 2 3 3 171 175 170 497
2552 4 2 3 3 169 497 38 168
2553 4 2 3 3 36 497 166 172
2554 4 2 3 3 169 497 170 176
2555 4 2 3 3 497 173 167 174
2556 4 2 3 3 168 497 173 167
2557 4 2 3 3 174 167 497 166
2558 4 2 3 3 175 467 37 497
2559 4 2 3 3 537 500 506 442
2560 4 2 3 3 537 506 500 520
2561 4 2 3 3 547 413 496 494
2562 4 2 3 3 547 415 413 410
2563 4 2 3 3 547 413 415 496
2564 4 2 3 3 547 493 411 492
2565 4 2 3 3 547 411 493 545
2566 4 2 3 3 184 411 493 492
2567 4 2 3 3 184 493 411 545
2568 4 2 3 3 547 428 545 495
2569 4 2 3 3 547 545 428 409
2570 4 2 3 3 442 537 444 445
2571 4 2 3 3 444 537 442 500
2572 4 2 3 3 529 541 528 306
2573 4 2 3 3 517 520 181 501
2574 4 2 3 3 181 520 517 182
2575 4 2 3 3 542 518 360 530
2576 4 2 3 3 542 360 518 502
2577 4 2 3 3 402 546 421 545
2578 4 2 3 3 402 421 546 297
2579 4 2 3 3 519 421 546 545
2580 4 2 3 3 519 546 421 297
2581 4 2 3 3 539 422 403 512
2582 4 2 3 3 539 403 422 430
2583 4 2 3 3 444 536 505 462
2584 4 2 3 3 505 536 444 503
2585 4 2 3 3 403 539 387 430
2586 4 2 3 3 387 539 403 549
2587 4 2 3 3 184 521 532 474
2588 4 2 3 3 184 532 521 544
2589 4 2 3 3 485 166 541 486
2590 4 2 3 3 485 541 166 504
2591 4 2 3 3 167 541 166 486
2592 4 2 3 3 167 166 541 504
2593 4 2 3 3 531 477 518 178
2594 4 2 3 3 531 518 477 516
2595 4 2 3 3 179 518 477 178
2596 4 2 3 3 179 477 518 516
2597 4 2 3 3 542 350 354 332
2598 4 2 3 3 542 354 350 502
2599 4 2 3 3 536 451 334 505
2600 4 2 3 3 536 334 451 434
2601 4 2 3 3 538 324 524 506
2602 4 2 3 3 538 524 324 310
2603 4 2 3 3 317 441 506 299
2604 4 2 3 3 317 506 441 438
2605 4 2 3 3 372 401 163 365
2606 4 2 3 3 163 401 372 427
2607 4 2 3 3 506 472 181 40
2608 4 2 3 3 506 181 472 520
2609 4 2 3 3 321 441 500 435
2610 4 2 3 3 500 441 321 299
2611 4 2 3 3 536 543 514 503
2612 4 2 3 3 514 543 536 502
2613 4 2 3 3 541 44 529 528
2614 4 2 3 3 541 529 44 186
2615 4 2 3 3 531 189 526 508
2616 4 2 3 3 531 526 189 39
2617 4 2 3 3 366 349 148 393
2618 4 2 3 3 366 148 349 332
2619 4 2 3 3 544 476 521 184
2620 4 2 3 3 544 521 476 511
2621 4 2 3 3 265 452 108 287
2622 4 2 3 3 265 108 452 433
2623 4 2 3 3 522 506 177 500
2624 4 2 3 3 522 177 506 538
2625 4 2 3 3 510 484 491 483
2626 4 2 3 3 510 491 484 504
2627 4 2 3 3 546 306 305 297
2628 4 2 3 3 546 305 306 528
2629 4 2 3 3 544 185 424 184
2630 4 2 3 3 544 424 185 525
2631 4 2 3 3 303 435 129 321
2632 4 2 3 3 303 129 435 455
2633 4 2 3 3 504 522 538 177
2634 4 2 3 3 538 522 504 498
2635 4 2 3 3 504 177 541 167
2636 4 2 3 3 504 541 177 538
2637 4 2 3 3 481 541 177 167
2638 4 2 3 3 481 177 541 538
2639 4 2 3 3 263 418 544 399
2640 4 2 3 3 544 418 263 280
2641 4 2 3 3 539 147 349 393
2642 4 2 3 3 539 349 147 338
2643 4 2 3 3 528 308 307 498
2644 4 2 3 3 528 307 308 305
2645 4 2 3 3 497 36 504 171
2646 4 2 3 3 504 170 497 171
2647 4 2 3 3 169 497 504 170
2648 4 2 3 3 169 504 497 168
2649 4 2 3 3 504 497 166 36
2650 4 2 3 3 504 167 497 168
2651 4 2 3 3 497 167 504 166
$EndElements
